<svg width="36" height="32" fill="none" xmlns="http://www.w3.org/2000/svg"><path d="M27.731 0H4.21C2.231 0 .622 1.482.622 3.304v20.964c0 1.822 1.609 3.304 3.587 3.304h19.427a8.349 8.349 0 0 0 4.954 4.363c.229.08.52.092.803.005 3.302-1.063 5.815-4.164 5.835-8.073l.006-2.774v-.005c0-.58-.5-1.07-1.13-1.115a9.541 9.541 0 0 1-2.786-.623V3.304c0-1.822-1.61-3.303-3.587-3.303V0zm-2.96 3.602c0 .544-.478.984-1.068.984-.59 0-1.069-.44-1.069-.984 0-.543.479-.984 1.069-.984s1.069.44 1.069.984zm-3.383 0c0 .544-.479.984-1.07.984-.59 0-1.068-.44-1.068-.984 0-.543.479-.984 1.069-.984s1.069.44 1.069.984zM4.84 2.633h8.713c.58 0 1.052.434 1.052.97 0 .534-.471.968-1.052.968H4.84c-.58 0-1.052-.434-1.052-.969 0-.535.471-.969 1.052-.969zm22.246-.015c.59 0 1.069.44 1.069.984s-.479.984-1.07.984c-.59 0-1.068-.44-1.068-.984 0-.543.479-.984 1.069-.984zm3.544 21.644c-.01.48-.299.935-.765 1.195l.206 1.324c.026.255-.194.42-.396.42h-1.314c-.231 0-.435-.207-.39-.42l.206-1.32c-.467-.27-.76-.724-.771-1.229-.006-.865.722-1.535 1.612-1.535.896 0 1.618.67 1.618 1.495l-.006.07z" fill="#182056"/><path d="M17.246 17.065a3.448 3.448 0 0 0-.763-.278v1.484c.688-.063 1.022-.326 1.022-.8 0-.176-.084-.308-.259-.406zM14.86 15c0 .203.08.356.248.466.16.106.396.2.7.28v-1.518c-.279.044-.506.13-.676.254a.607.607 0 0 0-.272.518z" fill="#fff"/><path d="M16.221 9.264c-4.143 0-7.514 3.11-7.514 6.927 0 3.816 3.37 6.914 7.514 6.914 4.137 0 7.508-3.098 7.508-6.914 0-3.817-3.37-6.927-7.508-6.927zm-4.781 7.651c-.44 0-.787-.318-.787-.724 0-.4.346-.737.787-.737.44 0 .793.337.793.737 0 .406-.353.724-.793.724zm5.042 2.174v.48a.288.288 0 0 1-.095.22.353.353 0 0 1-.247.087.35.35 0 0 1-.237-.082.284.284 0 0 1-.097-.225v-.48a5.606 5.606 0 0 1-1.648-.365.457.457 0 0 1-.204-.154.384.384 0 0 1 .037-.512.467.467 0 0 1 .5-.084c.418.171.86.272 1.316.3v-1.645c-1.009-.252-1.876-.603-1.876-1.575 0-.937.808-1.543 1.876-1.648v-.474a.3.3 0 0 1 .093-.222.363.363 0 0 1 .483-.002c.066.062.1.136.1.224v.462c.524.026.998.113 1.41.258.188.061.288.193.288.38 0 .1-.038.191-.112.272a.4.4 0 0 1-.306.128.486.486 0 0 1-.165-.037 4.371 4.371 0 0 0-1.116-.2v1.706c1.097.246 1.943.575 1.943 1.616 0 .757-.63 1.475-1.943 1.572zm4.507-2.174c-.434 0-.787-.318-.787-.724 0-.4.353-.737.787-.737.448 0 .793.337.793.737 0 .406-.345.724-.793.724z" fill="#fff"/></svg>