<svg width="35" height="32" fill="none" xmlns="http://www.w3.org/2000/svg"><path d="M2.798 13.211c.768-.707.275-1.464-.548-1.515C.878 11.595.11 10.28 1.207 9.17c1.207-1.01 2.688-.303 2.743.96.055.757.878 1.212 1.646.505l1.81-1.667a1.476 1.476 0 0 1 1.975 0l1.81 1.667c.768.707 1.591.253 1.591-.505.11-1.263 1.536-1.97 2.743-.91 1.097 1.112.329 2.476-1.043 2.527-.822.05-1.316.808-.548 1.464l1.865 1.718a1.21 1.21 0 0 1 0 1.819l-1.317 1.212a2.863 2.863 0 0 0-.713-1.06c-1.152-1.062-2.853-1.011-4.114.05l-.11.1c-1.152 1.162-1.206 2.78-.054 3.79.329.303.713.505 1.152.656L9.38 22.658c-.549.506-1.481.506-2.03 0l-1.81-1.667c-.768-.707-1.536-.303-1.59.505-.11 1.264-1.536 1.97-2.743.91-1.097-1.112-.33-2.476.987-2.526.823-.05 1.262-.758.494-1.465l-1.81-1.668a1.21 1.21 0 0 1 0-1.818l1.92-1.718zm7.57-6.972a1.267 1.267 0 0 0 0 1.87L11.63 9.27c.164-.405.384-.758.713-1.062 1.097-1.01 2.853-1.01 4.114.05l.11.102c1.152 1.162 1.207 2.778.055 3.789-.33.303-.714.505-1.153.657l1.317 1.212a1.476 1.476 0 0 0 1.975 0l1.865-1.717c.768-.708 1.536-.253 1.59.505.11 1.263 1.537 1.97 2.744.96 1.097-1.111.329-2.425-.988-2.526-.822-.05-1.316-.809-.548-1.465l1.81-1.667a1.21 1.21 0 0 0 0-1.82l-1.81-1.666c-.768-.708-.275-1.465.548-1.516 1.372-.101 2.14-1.415 1.043-2.526-1.207-1.01-2.688-.303-2.743.96-.055.758-.878 1.212-1.646.505L18.816.38a1.476 1.476 0 0 0-1.975 0l-1.81 1.667c-.768.708-1.536.303-1.591-.454-.11-1.263-1.536-1.97-2.743-.91-1.097 1.112-.329 2.425.987 2.526.823.05 1.262.758.549 1.465L10.368 6.24zm15.635 4.497c1.097 1.01 1.097 2.627-.055 3.789l-.11.1c-1.261 1.062-3.017 1.112-4.114.051a2.86 2.86 0 0 1-.713-1.06l-1.317 1.212a1.21 1.21 0 0 0 0 1.818l1.865 1.718c.768.707.275 1.415-.548 1.465-1.372.101-2.14 1.415-1.043 2.526 1.207 1.01 2.633.303 2.743-.91.055-.757.878-1.212 1.59-.504l1.811 1.667a1.476 1.476 0 0 0 1.975 0l1.81-1.667c.768-.708 1.59-.253 1.646.505.11 1.263 1.536 1.97 2.743.96 1.097-1.112.329-2.476-1.043-2.526-.822-.05-1.316-.809-.548-1.516l1.81-1.667a1.21 1.21 0 0 0 0-1.819l-1.81-1.667c-.768-.707-.33-1.415.493-1.465 1.372-.101 2.14-1.415.988-2.526-1.207-1.01-2.634-.303-2.743.91-.055.757-.823 1.161-1.59.504l-1.811-1.667c-.549-.505-1.482-.505-2.03 0l-1.261 1.162c.548.102.932.304 1.262.607zM11.575 28.52c-1.371.1-2.14 1.414-1.042 2.526 1.207 1.01 2.688.303 2.743-.96.054-.758.877-1.213 1.645-.506l1.81 1.668a1.476 1.476 0 0 0 1.976 0l1.81-1.668c.768-.707 1.536-.303 1.59.455.11 1.263 1.537 1.97 2.743.91 1.098-1.112.33-2.426-.987-2.527-.822-.05-1.261-.758-.549-1.465l1.81-1.667a1.267 1.267 0 0 0 0-1.87l-1.26-1.161a2.862 2.862 0 0 1-.714 1.06c-1.097 1.011-2.853 1.011-4.114-.05l-.11-.1c-1.152-1.162-1.207-2.78-.055-3.79.33-.303.714-.505 1.153-.656l-1.317-1.213a1.476 1.476 0 0 0-1.975 0l-1.865 1.718c-.768.707-1.536.252-1.59-.506-.11-1.263-1.537-1.97-2.743-.96-1.098 1.112-.33 2.425.987 2.526.822.05 1.316.809.548 1.465l-1.81 1.668a1.21 1.21 0 0 0 0 1.818l1.81 1.668c.823.808.33 1.566-.494 1.616z" fill="#182056"/></svg>