<svg width="39" height="29" fill="none" xmlns="http://www.w3.org/2000/svg"><path d="M32.632 4.605c-2.249-1.51-4.96-2.323-7.743-2.323-2.784 0-5.495.813-7.744 2.323-.83.558-1.882.71-2.843.432-2.928-.85-6.145-.497-8.8 1.018-3.13 1.788-5.035 4.939-5.035 8.33 0 3.393 1.904 6.544 5.035 8.33 2.612 1.492 5.767 1.857 8.657 1.06a3.858 3.858 0 0 1 3.111.472c2.225 1.457 4.888 2.24 7.619 2.24 2.73 0 5.393-.783 7.618-2.24 2.27-1.489 3.969-3.604 4.849-6.04a11.2 11.2 0 0 0 .048-7.51c-.85-2.446-2.52-4.579-4.772-6.092zm-17.133 9.8a.577.577 0 0 1-.577.578h-.099a.577.577 0 0 1 0-1.154h.1c.318 0 .576.258.576.577zm8.763-9.223c0-.319.259-.577.577-.577h.099a.577.577 0 0 1 0 1.153h-.099a.577.577 0 0 1-.576-.576zm-6.861 2.26a.6.6 0 1 1 .813.883.6.6 0 0 1-.813-.882zm.814 13.925a.6.6 0 1 1-.816-.88.6.6 0 0 1 .816.88zm7.3 2.263a.576.576 0 0 1-.577.576h-.099a.576.576 0 1 1 0-1.153h.099c.318 0 .576.259.576.577zm-.627-2.883a7.306 7.306 0 0 1-3.881-1.106 6.571 6.571 0 0 1-2.113-2.121c-.225-.368.062-.808.494-.808.151 0 .297.057.409.16l1.517 1.402a.654.654 0 0 0 .445.167c.822 0 1.538.616 2.282.965a2.01 2.01 0 0 0 1.97-.15c.478-.327.76-.843.76-1.391 0-.549-.282-1.064-.76-1.39a2.01 2.01 0 0 0-1.667-.264 1.905 1.905 0 0 0-.84.49c-.298.302-.662.587-1.087.587-.258 0-.507-.097-.697-.273l-1.395-1.289a.654.654 0 0 0-.444-.167h-1.51a.294.294 0 0 1-.294-.244.29.29 0 0 1 .29-.333h4.926c1.366 0 2.57 1.145 3.863 1.586a2.686 2.686 0 0 0 2.3-.27c.674-.43 1.075-1.137 1.075-1.892 0-.755-.401-1.462-1.074-1.893a2.687 2.687 0 0 0-2.301-.27c-1.292.442-2.497 1.586-3.863 1.586h-4.938c-.178 0-.32-.144-.286-.318a.32.32 0 0 1 .316-.258h1.495c.167 0 .327-.06.445-.168l1.395-1.289c.19-.175.439-.273.697-.273.425 0 .789.286 1.088.588.224.227.512.397.839.49a2.01 2.01 0 0 0 1.666-.264c.48-.326.762-.842.762-1.39 0-.549-.283-1.064-.762-1.39a2.01 2.01 0 0 0-1.969-.151c-.744.349-1.46.964-2.282.964a.654.654 0 0 0-.445.168l-1.517 1.402a.603.603 0 0 1-.409.16c-.432 0-.719-.44-.494-.808a6.67 6.67 0 0 1 2.849-2.525 7.419 7.419 0 0 1 4.842-.508c1.628.38 3.048 1.294 3.995 2.572.946 1.276 1.354 2.828 1.145 4.362-.208 1.535-1.018 2.946-2.277 3.969-1.26 1.023-2.88 1.587-4.56 1.586zm7.488.622a.6.6 0 1 1-.813-.883.6.6 0 0 1 .813.883zm-.001-13.042a.6.6 0 1 1-.81-.886.6.6 0 0 1 .81.886zm3.155 6.079a.576.576 0 0 1-.576.576h-.1a.576.576 0 1 1 0-1.153h.1c.318 0 .576.258.576.577z" fill="#182056"/><path d="m33.965 26.138-.726-.934c-2.439 1.599-5.358 2.458-8.351 2.458-2.994 0-5.912-.86-8.351-2.458l-.726.934c2.648 1.743 5.822 2.68 9.077 2.68 3.256 0 6.429-.937 9.077-2.68zM16.424 3.689c2.456-1.647 5.414-2.534 8.451-2.534 3.037 0 5.996.887 8.45 2.534l.74-.934C31.39.965 28.168 0 24.861 0c-3.306 0-6.527.964-9.201 2.755l.763.934zM11.742 8.64c0 .956-.84 1.73-1.877 1.73-1.038 0-1.878-.774-1.878-1.73 0-.954.84-1.729 1.878-1.729 1.037 0 1.877.775 1.877 1.73zM10.132 14.497v.931c0 .19-.167.344-.372.344h-.635c-.206 0-.372-.154-.372-.344v-.93c0-.705-.617-1.276-1.379-1.276-.761 0-1.379.571-1.379 1.275v.931c0 .19-.166.344-.371.344h-.636c-.205 0-.372-.154-.372-.344v-.93c0-1.41 1.235-2.55 2.758-2.55s2.758 1.14 2.758 2.55z" fill="#182056"/><path d="M12.2 15.368v-4.562h-1.413l.022 4.562c0 .705-.617 1.275-1.379 1.275-.761 0-1.379-.57-1.379-1.275v-.93c0-.19-.166-.345-.371-.345h-.636c-.205 0-.371.154-.371.344v.931c0 1.409 1.237 2.55 2.763 2.55 1.527 0 2.764-1.141 2.764-2.55zM7.399 12.011c.032-.023.016-.072-.025-.072-1.523 0-2.758 1.142-2.758 2.55v.931c0 .19.167.344.372.344h.636c.205 0 .371-.154.371-.344v-.93c0-.297.11-.57.293-.787a.423.423 0 0 0 .093-.18 2.533 2.533 0 0 1 1.018-1.512z" fill="#182056"/><path d="M9.557 17.919a2.965 2.965 0 0 1-.127.003c-1.523 0-2.757-1.142-2.757-2.55v-1.276H8.05v1.275c0 .334.139.638.366.865.12.695.543 1.295 1.14 1.683z" fill="#182056"/></svg>