<svg width="600" height="570" fill="none" xmlns="http://www.w3.org/2000/svg"><g filter="url(#a)"><path d="m32.771 211.074-12.1-14.719-1.57 56.551 13.67-41.832z" fill="#fff" fill-opacity=".04"/><path d="M21.343 299.387 9.466 278.914v12.394l11.877 8.079z" fill="#fff" fill-opacity=".6"/><path d="M21.791 299.608 9.58 278.803l17.703 1.217-5.49 19.588zM39.606 291.197l-11.54-10.956 35.181 5.091-23.641 5.865zM41.4 263.752 9.578 278.249l3.585-14.165 5.938-10.624L41.4 263.752zM34.227 234.204 19.662 251.8l4.257-13.391 4.482-14.387 5.826 10.182z" fill="#fff" fill-opacity=".31"/><path d="m32.66 211.074-13.445 41.169.56-12.949.784-43.16 12.1 14.94zM32.773 160.942l-16.695 9.517 7.283-21.358 9.412 11.841zM18.318 163.377l-2.353 6.75-2.689-10.956 4.034 5.091 1.008-.885z" fill="#fff" fill-opacity=".31"/><path d="m17.421 164.151-4.37-5.201 7.283-14.829 7.06 11.066-9.973 8.964zM13.163 158.507l-2.913-11.288 10.084-3.098-7.171 14.386zM23.247 130.951l4.93 7.083-1.904 2.103-.897 2.545-15.014 4.205 12.885-15.936zM36.805 95.316l32.829 15.604-34.846 2.324 2.017-17.928zM22.463 131.394l-8.179 10.513-6.722.443 14.901-10.956z" fill="#fff" fill-opacity=".6"/><path d="m49.018 153.528-15.91 6.75-.224-17.485 16.134 10.735zM52.38 136.374l-1.121 9.296-19.608-4.648 20.728-4.648zM57.533 88.012 36.58 95.095l-1.569-15.493 22.52 8.41z" fill="#fff" fill-opacity=".31"/><path d="m41.398 97.42-4.818-2.325 6.61-22.686-1.792 25.01zM43.079 70.306l-8.18 9.296-1.456-27.888 9.636 18.592z" fill="#fff" fill-opacity=".31"/><path d="M43.416 71.08 33.334 51.381 44.425 39.43 43.417 71.08z" fill="#fff" fill-opacity=".31"/><path d="m43.192 70.085-9.86-18.703 10.757 4.98 7.955 3.762-8.852 9.96zM48.345 26.15 49.8 38.986l2.13 20.695-7.283-20.695 3.697-12.838zM62.014 63.666 59.549 77.83l-7.395-17.485 9.86 3.32z" fill="#fff" fill-opacity=".31"/><path d="M76.47 68.756 57.757 88.123l4.258-24.568 14.453 5.201zM76.693 68.646l31.821-2.988-32.717 14.497-6.05-4.316 6.946-7.193zM85.433 48.947l52.549-12.395-27.339 15.051-25.21-2.656zM175.964 93.656l-24.089-24.9 40.336-28.663-16.247 53.563z" fill="#fff" fill-opacity=".31"/><path d="m177.308 75.396-17.143-10.181 17.143-10.845v21.026z" fill="#fff" fill-opacity=".31"/><path d="m170.81 68.646-44.034 4.316 26.443-9.518 17.591 5.202zM209.579 61.674l-25.098 4.205 2.017-6.419 23.081 2.214zM250.25 87.46l-73.949 5.533 5.266-17.596 68.683 12.062z" fill="#fff" fill-opacity=".31"/><path d="m213.723 72.187 71.709 21.47-57.255 15.382-7.507-11.398-6.947-25.454zM301.678 112.913l15.799 19.034-41.681 26.339 25.882-45.373z" fill="#fff" fill-opacity=".31"/><path d="m312.323 118.557 39.664 14.497-51.429 6.64 11.765-21.137z" fill="#fff" fill-opacity=".31"/><path d="m297.644 85.246 14.566 33.642-3.474 2.656-18.711-24.568 7.619-11.73z" fill="#fff" fill-opacity=".31"/><path d="m310.754 99.964 10.42 9.407-19.16 2.877 8.74-12.284zM361.398 111.252l-14.902 2.656-23.865-4.537 38.767 1.881zM289.913 97.53l15.239 19.477-24.426-5.09 9.187-14.387zM297.534 85.025l-10.757 8.3-16.022-20.695 26.779 12.395zM256.973 30.133l-38.32 15.826 16.023-15.826h22.297zM297.532 25.153l32.829 4.87-58.487-3.099 25.658-1.77zM192.435 8l19.048 6.972-37.535-6.087L192.435 8zM308.513 55.697l13.669 7.636-77.871-10.181 64.202 2.545zM240.503 52.71l10.532 10.845-50.868-9.296 40.336-1.55zM290.474 44.741l-4.37 6.087-15.014-1.881 19.384-4.206zM310.977 46.733l27.451 5.644-30.588-3.32 3.137-2.324zM76.58 68.535l-14.341-4.98 2.24-12.173 12.102 17.153zM69.521 110.146l-19.271-8.964 7.283-12.395 11.988 21.359zM33.556 131.947l-10.532-1.106 1.232-5.755 9.3 6.861z" fill="#fff" fill-opacity=".31"/><path d="m38.374 119.995-15.35 10.846 9.86-12.284 5.49 1.438zM59.886 142.129l-25.21-9.85 18.151 4.095 7.059 5.755zM32.996 132.722v27.446l-6.611-19.92 6.61-7.526zM63.248 274.486l-35.855 5.312 19.048-13.39 16.806 8.078z" fill="#fff" fill-opacity=".31"/><path d="M37.03 312.003 22.126 299.94l16.135.332-1.233 11.731zM63.024 307.908 44.2 310.564l12.661-10.292 6.163 7.636z" fill="#fff" fill-opacity=".6"/><path d="m56.861 300.272-18.375-.221 24.986-14.498-6.61 14.719z" fill="#fff" fill-opacity=".31"/><path d="m99.326 271.72-6.723-15.494 16.134-17.928-9.411 33.422zM68.626 261.539l-4.93-7.194L77.7 195.36v41.389l-9.075 24.79z" fill="#fff" fill-opacity=".6"/><path d="m77.814 194.363-.672-28.773 19.383 4.759-18.711 24.014zM77.029 165.147l-6.947-12.284 28.796 4.98-21.849 7.304z" fill="#fff" fill-opacity=".31"/><path d="m77.03 165.148 5.938-21.027 12.325-6.862 11.652-4.869-10.756 15.936-19.16 16.822z" fill="#fff" fill-opacity=".31"/><path d="m99.775 165.811-11.093-13.28 36.303-13.169-25.21 26.449zM122.967 125.971l-18.6-8.632 6.835-9.407 4.93-7.304-6.05-5.312 15.238-7.968 26.778-18.37 2.801 18.813-2.801 24.125 7.059 14.055-22.857-2.877 5.154 8.853-18.487-5.976z" fill="#fff" fill-opacity=".31"/><path d="m111.876 153.085 31.709 5.422-6.611-10.845-11.652-8.189-13.446 13.612zM162.968 133.275l-37.423 5.644 11.877 8.079 20.056 10.624 5.49-24.347z" fill="#fff" fill-opacity=".31"/><path d="m180.67 128.959-17.255 4.095-5.938 24.568 28.571-23.13-5.378-5.533zM109.298 161.053l4.482 5.976 6.61-5.976 4.034-5.091h-8.964l-6.162 5.091zM143.135 158.508l-22.633 2.877 8.964 3.874 13.669-6.751zM109.859 173.226l-10.084-7.082-3.137 3.984 13.221 3.098zM91.596 194.695l21.848-8.742 16.135 9.074-37.983-.332z" fill="#fff" fill-opacity=".31"/><path d="m145.264 173.447-31.821 12.506 16.135 9.074 15.686-21.58zM109.521 173.668l-1.008 10.735 11.54-3.652-10.532-7.083zM122.632 182.19l22.633-8.853-11.989-.222-3.922-7.525-20.168 7.747 13.446 8.853zM78.038 194.917l15.462 9.96-7.059 15.051-6.386 9.849-2.465-.885.448-33.975z" fill="#fff" fill-opacity=".31"/><path d="m77.59 218.6 40.672 8.3-40.672 3.32V218.6z" fill="#fff" fill-opacity=".31"/><path d="m77.814 194.253 18.711-24.015 12.213 2.988-30.924 21.027zM78.261 194.363l30.924-21.248-.896 11.399-30.028 9.849zM78.261 194.364l29.916-9.518-2.577 27.446-27.339-17.928z" fill="#fff" fill-opacity=".6"/><path d="M78.038 194.917h50.42l-22.857 17.375-27.563-17.375zM128.792 194.695l30.925-8.41 4.818 3.652-10.645 9.517-8.179-1.66-5.938 6.751-10.981-9.85zM165.881 173.779l20.728-5.423-27.003 17.818 6.275-12.395z" fill="#fff" fill-opacity=".6"/><path d="m164.537 183.076 21.849-14.387-18.6 16.157-3.249-1.77zM139.774 180.53l5.603-6.972 14.117 12.727-19.72-5.755z" fill="#fff" fill-opacity=".31"/><path d="m145.601 173.005 12.1-15.272 6.275-5.091 1.232 21.138-19.607-.775z" fill="#fff" fill-opacity=".6"/><path d="m164.871 170.792-.672-18.26 17.927-14.719 5.042 30.323-22.297 2.656z" fill="#fff" fill-opacity=".6"/><path d="m187.281 168.246-5.042-30.544 3.922-3.209 10.756 4.537 7.283 8.079-16.919 21.137zM204.312 147.219l-7.171-8.189 15.126-4.427-7.955 12.616zM212.379 134.382l-21.736-7.858 8.515-15.604 19.048 1.328-5.827 22.134zM192.995 525.037v14.94l-15.687-5.201 15.687-9.739zM173.499 511.204l5.042 7.304-8.852-2.324 3.81-4.98zM171.035 503.457l-1.344 12.506-14.454-2.878 15.798-9.628zM170.25 503.125l-17.703 2.213-1.681-4.98 19.384 2.767zM188.177 506.998l-22.185-12.837 19.832-.996 2.353 13.833zM141.903 484.975l-8.18-18.702 25.547 17.153-8.18 1.549 5.603 5.866-14.79-5.866z" fill="#fff" fill-opacity=".31"/><path d="m150.194 484.754-3.473-21.469 12.549 20.141-9.076 1.328z" fill="#fff" fill-opacity=".31"/><path d="m134.508 465.72 9.86-10.735 8.627 12.395-18.487-1.66zM127 451.776l18.936-2.103-1.793 4.537L127 451.776zM119.271 432.741l5.939-13.501.112 13.501h-6.051zM106.273 420.899l3.137-21.469 15.687 19.256-18.824 2.213zM109.41 399.208l15.911-2.988 10.98 17.818-26.891-14.83zM93.725 383.715l14.677-10.07 9.3 3.873-13.445 15.383-5.378 6.308-5.154-15.494z" fill="#fff" fill-opacity=".31"/><path d="m93.725 383.715 14.677-10.07 2.353.996-8.067 18.149 1.457.221-5.266 6.198-5.154-15.494z" fill="#fff" fill-opacity=".31"/><path d="m107.841 367.115 4.146 3.763-17.591 12.394 13.445-16.157z" fill="#fff" fill-opacity=".31"/><path d="m118.821 370.878 13.669 12.727-24.201-10.292 10.532-2.435zM133.835 348.412l-1.12 16.822-13.894 4.205-6.274-6.751 21.288-14.276zM130.923 281.791l16.359-17.928 3.361 7.304-7.507 4.095 18.823 14.94-31.036-8.411zM186.049 224.908l9.636-19.478 1.344 13.834 9.524-4.759-8.74 19.477-11.764-9.074zM206.888 214.173l-10.756-9.075 7.171-14.387 3.585 23.462z" fill="#fff" fill-opacity=".31"/><path d="m195.796 192.372 2.577 8.41-2.017 4.316-2.129-1.438 1.569-11.288zM174.843 353.503l-13.893 14.165-10.42-7.525-16.135-11.731 40.448 5.091zM199.382 357.93l-25.994 30.101-5.826-19.145 31.82-10.956zM216.75 350.404l-7.283 34.196-12.213-7.857 19.496-26.339z" fill="#fff" fill-opacity=".31"/><path d="m199.606 358.04-2.353 18.703-7.731-7.858 10.084-10.845zM210.138 348.08l13.445 4.205-23.865 5.755 10.42-9.96zM231.987 348.302l-1.009 20.695-15.574-8.522 16.583-12.173z" fill="#fff" fill-opacity=".31"/><path d="m238.709 355.384-15.238 5.312-1.569-5.312h16.807zM250.697 347.416l-16.358 3.32-9.524-7.414 25.882 4.094zM251.147 366.451l-20.168 2.545 8.403-13.612 11.765 11.067z" fill="#fff" fill-opacity=".31"/><path d="m275.348 353.946-24.314 12.505 5.603-19.145 18.711 6.64zM316.357 335.464l-36.975 17.928-26.106-21.137 63.081 3.209zM328.344 302.485l-11.541 32.094-7.059-56.772 18.6 24.678zM395.123 93.877l-43.698 4.649 10.981-10.846 32.717 6.197zM468.4 59.792l-39.775 42.828-3.922-10.845L468.4 59.792zM583.805 96.202l-9.524 3.874-62.296-1.44 71.82-2.434zM492.938 180.973l66.106 39.065-97.478-35.303 31.372-3.762zM403.078 141.133l63.417 17.928-74.958-13.502-38.095-11.952 49.636 7.526zM344.704 130.398l57.815-4.316-49.86 6.972-7.955-2.656zM358.373 76.724l-60.168 8.079 12.437-8.079h47.731zM352.434 60.124l-12.101-1.328 13.109-4.758-1.008 6.086zM380.109 49.058l-33.725 17.485 30.028-17.485h3.697zM319.381 261.76l-41.008 16.6 35.406-21.801 5.602 5.201z" fill="#fff" fill-opacity=".31"/><path d="m309.186 276.811-32.605-13.391 8.291-5.422 24.314 18.813zM276.02 263.088l-28.683-11.731 17.815-20.141 10.868 31.872z" fill="#fff" fill-opacity=".31"/><path d="m251.034 269.838-3.697-18.481 18.375-20.252-14.678 38.733zM275.46 353.946l-10.308 21.137.896-24.568 9.412 3.431zM266.047 384.6l-28.908 18.371 14.23-36.299 14.678 17.928zM262.35 403.192l-22.409 13.059-2.577-13.391 24.986.332z" fill="#fff" fill-opacity=".31"/><path d="m237.14 402.971-16.47 31.54 5.49-39.176 10.98 7.636zM263.247 483.869l-11.54 24.568-12.885-27.113 24.425 2.545zM272.659 494.604l-4.034 13.169-16.807.775 20.841-13.944zM284.312 497.259l2.129 5.091-12.886-7.636 10.757 2.545zM259.997 477.782l3.249 5.755-11.092-4.759 7.843-.996zM297.421 517.511l-9.076 14.83-19.159-24.236 28.235 9.406zM288.792 532.784l22.409 5.312 8.068-6.087 10.084 9.628-14.006 15.825-26.555-24.678zM373.723 510.097l-15.463-7.193 45.603-5.091-30.14 12.284zM494.507 469.593l-22.073-13.501h22.073v13.501z" fill="#fff" fill-opacity=".31"/><path d="m386.608 427.097-24.986 9.296 8.403-20.806 16.583 11.51z" fill="#fff" fill-opacity=".6"/><path d="m388.849 413.042-18.599 2.324 12.325-17.043 6.274 14.719z" fill="#fff" fill-opacity=".31"/><path d="m362.967 436.393 27.675-4.648-3.81-4.759 15.798-21.801-7.619 31.208h-32.044z" fill="#fff" fill-opacity=".6"/><path d="m402.63 405.185 2.241 11.62-15.35-4.095 13.109-7.525zM336.3 354.942l36.751 30.101 2.577 15.051-26.667-12.063-12.661-33.089z" fill="#fff" fill-opacity=".6"/><path d="m352.322 358.594 32.492 21.912-32.492-10.624v-11.288zM385.263 381.391l7.171 12.284-9.524 4.538 2.353-16.822z" fill="#fff" fill-opacity=".6"/><path d="m385.263 380.838 18.599 2.324-8.963 15.05-9.636-17.374z" fill="#fff" fill-opacity=".6"/><path d="m382.91 398.102 2.353-16.711 7.283 12.174 5.49-2.435 4.818 13.501-19.944-6.529zM408.232 323.733l-3.697 41.058-3.362 15.604-15.798-15.604 22.857-41.058zM375.18 344.982l9.86 19.588-25.659-8.964 15.799-10.624zM379.438 325.394l15.126-34.197 8.739-1.106 1.569 11.288-25.434 24.015z" fill="#fff" fill-opacity=".31"/><path d="M385.375 364.791h19.16l-3.362 15.604-15.798-15.604zM418.429 299.055l53.333 5.091-50.868 8.078-2.465-13.169zM487.783 232.433l56.919 3.32-30.477 3.431-26.442-6.751zM435.123 273.712l23.417-5.644 2.241 8.743-25.658-3.099zM473.442 303.039l25.21-33.09 4.481 3.874-29.691 29.216z" fill="#fff" fill-opacity=".31"/><path d="m418.427 299.055 2.577 13.391-13.109 3.984 10.532-17.375z" fill="#fff" fill-opacity=".31"/><path d="m404.983 230.552 26.89-6.419-11.204 87.759-15.686-81.34zM328.68 169.021l75.855 49.358-25.098 6.861-50.757-56.219zM320.726 156.405l37.983 11.952-11.541 3.209-26.442-15.161zM318.597 154.523l14.454-6.086 55.686-2.324-70.14 8.41zM316.804 335.575l35.07 22.465-32.044-6.64-3.026-15.825zM319.829 351.511l12.549 14.165-26.218 1.66 13.669-15.825zM324.311 393.343l-14.118 8.079-24.986-35.967 39.104 27.888z" fill="#fff" fill-opacity=".31"/><path d="m324.311 393.343-14.118 8.079-24.986-35.967 39.104 27.888z" fill="#fff" fill-opacity=".31"/><path d="m305.935 367.337 4.482 33.975-10.532-33.975h6.05zM345.823 414.148l-29.132-8.41 7.395-12.395 21.737 20.805zM365.879 405.184l-41.568-11.841 26.442-3.984 15.126 15.825zM358.933 417.247l-12.773-2.988 19.384-8.742-6.611 11.73z" fill="#fff" fill-opacity=".31"/><path d="m345.936 413.817-15.238-4.206 14.006-13.391 1.232 17.597z" fill="#fff" fill-opacity=".31"/><path d="m361.174 436.171-43.922-29.88 38.768 18.924 5.154 10.956z" fill="#fff" fill-opacity=".6"/><path d="m285.88 556.688 28.908-27.224L294.283 562l-8.403-5.312z" fill="#fff" fill-opacity=".31"/><path d="m304.592 512.199-7.283 4.759-9.972-13.833 17.255 9.074zM312.211 508.769l11.765 8.079-19.16-4.648 7.395-3.431zM312.099 519.836l3.361 8.078-17.591-10.513 14.23 2.435zM324.872 517.18l3.474 7.525-15.799-4.98 12.325-2.545zM320.501 522.381l7.731 2.546 2.129 17.485-14.566-14.165 4.706-5.866z" fill="#fff" fill-opacity=".6"/><path d="m216.524 527.029 8.627-.885 5.49 5.533 13.558 13.944-14.342-3.098-4.706-.443-8.627-15.051zM254.843 550.269l6.835-2.988 3.585.775-2.353 3.762 1.121 2.324-5.378 5.312-10.084-2.877-5.042-2.767 11.316-3.541zM220.67 434.843l-12.774-2.213.449-25.011 12.325 27.224z" fill="#fff" fill-opacity=".31"/><path d="m200.39 490.509 32.045 21.248-21.625 1.881 5.938 13.834-5.938-4.427-.672 4.427-14.454-13.059 4.706-23.904zM226.048 395.667l-18.151 36.963-4.706-34.528 22.857-2.435zM167.224 369.218l-.56 7.968-8.067-5.312 8.627-2.656z" fill="#fff" fill-opacity=".31"/><path d="m155.124 370.988 5.602-3.098 2.577 5.312-7.731 5.644-.448-7.858zM173.162 388.474l-5.714 12.948-6.723-15.936 12.437 2.988zM132.827 365.234l22.073 5.644-22.073 12.726v-18.37z" fill="#fff" fill-opacity=".31"/><path d="m117.029 378.957 15.686 4.98-7.395 12.173-8.291-17.153z" fill="#fff" fill-opacity=".61"/><path d="m212.379 134.382-21.736-7.857-16.471-5.423 14.79-24.679 31.484 1.328-21.288 13.17 5.826 10.181 7.395 13.28z" fill="#fff" fill-opacity=".31"/><path d="m188.961 96.423 10.196 14.498-24.986 9.628-1.456 9.628-9.412-2.435-4.034-1.66-7.394-13.723 12.324-.774-11.092-6.972 1.457-21.36 4.481-2.102-6.946-12.395 23.753 24.569 13.109 3.098z" fill="#fff" fill-opacity=".31"/><path d="m69.858 263.863-1.345-2.324 8.74-24.126v14.055l-7.395 12.395zM79.943 230.109l8.851 18.149-6.61-4.758-4.706 7.525V236.86l2.465-6.751zM77.141 274.818l-7.059-10.956 7.283-11.841-.224 22.797zM63.919 274.265l6.05-10.181-6.05-9.296v19.477zM33.444 259.989l8.29 3.873 20.505-8.964-28.795 5.091zM46.553 266.408l-5.041-2.324-20.505 8.743 6.163 6.75 19.383-13.169z" fill="#fff" fill-opacity=".6"/><path d="m118.262 227.564-18.6 51.792-.224-.221v-7.304l9.524-33.864 9.3-10.403zM88.906 259.546l-2.689 18.592-9.972-1.549 12.661-17.043z" fill="#fff" fill-opacity=".31"/><path d="m88.906 259.436 10.196 20.473-15.35-13.833 5.154-6.64z" fill="#fff" fill-opacity=".31"/><path d="m74.228 257.333 7.955-13.723 6.834 4.98-8.74-18.37 37.312-3.21-13.221 4.095-6.163 6.529-3.697 7.304 14.005-6.529-15.798 17.817-3.922 2.546v.553l-5.042 6.861-9.523-8.853z" fill="#fff" fill-opacity=".31"/><path d="M98.205 237.966h10.42l-14.006 6.751 3.586-6.751zM111.426 229.113l-2.689 8.632-4.482-6.308 7.171-2.324zM128.346 209.525 118.262 226.9l-5.603-1.328 1.457-4.095-4.034-3.763-4.257-5.09 22.521-3.099zM88.681 305.363l-25.434 2.877 3.586-4.869 21.848 1.992z" fill="#fff" fill-opacity=".31"/><path d="m56.973 300.161 6.947-14.94-9.188-1.328 9.188-9.185 26.218 30.433-14.79-3.652-4.594 2.103-4.033-.221.56-3.21H56.973z" fill="#fff" fill-opacity=".6"/><path d="m63.808 274.597 35.518 5.976-2.913 16.158-6.05 8.41-26.555-30.544z" fill="#fff" fill-opacity=".6"/><path d="M13.292 263.562 9.358 278.66m3.934-15.098 5.845-10.325m-5.845 10.325 7.88 9.214m-7.88-9.214 50.467-9.103M9.36 278.66v12.656l12.475 8.549M9.358 278.66l17.984 1.332M9.358 278.66l5.395 9.17m-5.395-9.17 11.352-5.654m1.124 26.859 15.287 12.434m-15.287-12.434 5.508-19.873m-5.508 19.873-7.08-12.035m7.08 12.035 16.41.333m-1.123 12.101 6.294-1.555m-6.294 1.555 1.124-12.101m5.17 10.546 19.895-2.664m-19.895 2.664 13.488-10.546m6.407 7.882.135-.014m-.135.014 3.372-4.663m23.716 1.887 6.07-8.215 2.922-16.763m-8.992 24.978-26.953 2.762m26.953-2.762-26.639-30.64m26.639 30.64-19.782-1.574m19.782 1.574-15.174-3.774-4.608 2.2m28.774-23.404 19.22-53.511m-19.22 53.511-10.308-21.012m10.308 21.012-13.151-2.09m13.15 2.09-25.458-22.87m25.459 22.87-6.632-24.091m6.632 24.091v-8.327m19.22-45.184 6.294-11.324 3.035-5.995m-9.329 17.319-9.666 11.213m9.666-11.213-.255.081m9.584-17.4 11.802-4.662m-11.802 4.662-1.461-7.66m1.461 7.66-22.255 2.998m34.057-7.66 5.845-7.105m-5.845 7.105-10.79-10.325m16.635 3.22 8.092 1.887 10.903-9.659m-18.995 7.772-16.073-32.306m16.073 32.306-36.613-24.636m55.608 16.864 3.147-4.884m-3.147 4.884-5.058-3.663m8.205-1.221 19.783-17.097m-19.783 17.097-8.205 1.221m8.205-1.221-15.623-9.548m35.406-7.549 8.429 23.647m-8.429-23.647-21.806 5.773m21.806-5.773-.347.227m8.776 23.42-1.573 11.768m1.573-11.768 3.822 13.877 4.608-58.395m-10.003 56.286 1.573 2.109m-1.573-2.109 44.622-11.102-4.626 12.008m-39.996-.906 39.789 1.443m-39.789-1.443 1.839 1.573m-.266.536-9.891 19.428m9.891-19.428.266-.536m-10.157 19.964-37.991 37.857-17.309 19.095m55.3-56.952 11.915 9.103-5.845 17.985m-6.07-27.088 6.07 27.088m-6.07-27.088 20.907-10.769m-76.207 67.721 4.496.999m-4.496-.999 20.007-10.436m-20.007 10.436 31.809 8.659m-27.313-7.66-8.205 14.21m8.205-14.21 5.957-8.992m-14.162 23.202 6.969 51.179m-6.969-51.179 12.364 8.215m-12.364-8.215 76.094 34.194m-69.125 16.985-21.806 14.543m21.806-14.543 48.106-48.403m-48.106 48.403 69.125-16.985m-69.125 16.985 5.395-42.964m-5.395 42.964 41.138 5.218m-41.138-5.218 26.863 19.539m-26.863-19.539-1.349 16.875m-20.457-2.332-4.383 4.108m4.383-4.108 6.744 6.773 13.713-4.441m-20.457-2.332 20.457 2.332m-24.84 1.776-13.938 2.665 5.283 2.22m8.655-4.885-13.938 16.875m13.938-16.875 4.383 3.886m-4.383-3.886-8.655 4.885m0 0-5.283 11.99m0 0 2.457 7.715m-2.457-7.715 18.321-12.989m-6.407 50.402 19.558-2.443m-19.558 2.443 3.372-21.982m-3.372 21.982-7-21.982m26.558 19.539-6.407 13.988h6.407m0-13.988-16.186-19.539m16.186 19.539 30.123.888m-30.123-.888v13.988m0-13.988 21.243 7.66m-21.243 6.328 1.461 19.095m-1.461-19.095 21.243-6.328m-21.243 6.328 43.611 14.1m-43.611-14.1 32.258 1.999m-30.797 17.096 17.534 2.554m-17.534-2.554 19.076-2.261m-1.542 4.815-10.453 11.435m10.453-11.435 1.542-4.815m-1.542 4.815 9.105 13.211-19.558-1.776m10.453-11.435 24.616-7.549m-35.069 18.984.359.871m-.359-.871 25.721 17.762m-2.005 7.883 7.981 2.553m-7.981-2.553 2.005-7.883m-2.005 7.883-.674-.279m8.655 2.832 22.704 13.433-1.91-14.321m-20.794.888 20.794-.888m0 0-17.422-46.294m17.422 46.294-26.77-9.548m9.348-36.746-1.574-13.1-2.473-19.206-9.441 5.106m13.488 27.2-11.353-12.101m11.353 12.101-23.074 2.734m23.074-2.734-9.348 36.746m9.348-36.746-13.488-27.2m0 0-6.632-10.546m6.632 10.546-8.88 6.772m8.88-6.772-2.023 36.192-7.563-6.258m9.586-29.934-9.586 29.934m9.586-29.934-18.546-5.106m11.914-5.44 18.546-7.438m-18.546 7.438-11.914 5.44m11.914-5.44-7.081-11.213m25.627 3.775 5.845-13.323m-5.845 13.323-25.627-3.775m25.627 3.775-6.519-15.987m12.364 2.664 16.298-19.317m-16.298 19.317-5.845-19.317m5.845 19.317-12.364-2.664m28.662-16.653 7.643 7.772m-7.643-7.772 10.127-11.212m-2.484 18.984 2.484-18.984m-2.484 18.984 3.432 9.658m-3.432-9.658 12.499 8.104m-12.499-8.104 12.499-17.063m-6.542 38.156v-4.33l-2.525-7.105m2.525 11.435 3.372 26.533 1.461 8.326m-4.833-34.859 22.98-2.331m-18.147 37.19h3.035l-5.508 26.978m2.473-26.978v-25.756m0 25.756 12.701 1.999m-12.701-1.999 18.147-37.19m-20.62 64.168-5.17 30.973m5.17-30.973 15.174-24.979m-15.174 24.979h28.212m-28.212 0 33.27 21.426m-38.44 9.547-4.496 23.647.562.521m3.934-24.168 38.44-9.547m-38.44 9.547 32.146 20.983m-32.146-20.983 16.41 36.192m13.039 15.654-4.609-.556-8.655-14.654-5.844-4.107-.45 4.44-13.825-12.801m33.383 27.678 2.697-30.863m-2.697 30.863 21.917-33.972m-21.917 33.972 7.98 1.745m6.744 1.474 10.34 4.441m-10.34-4.441-6.744-1.474m6.744 1.474-19.333-19.761-8.43.888m38.103 23.314-11.352 3.552 4.946 2.887m6.406-6.439 9.442 3.996m-9.442-3.996 6.744-2.998m-6.744 2.998-6.406 6.439m6.406-6.439 3.822 9.325m-10.228-2.886 10.228 2.886m0 0 5.62-5.329m0 0-1.461-2.331 2.81-3.886-4.047-.777m0 0-9.891-38.634m0 0 17.085-.666m-17.085.666-19.22 3.109m19.22-3.109-13.937 35.717m13.937-35.717 11.802-24.868m-11.802 24.868-12.926-27.421m12.926 27.421 21.244-14.21m-4.159 13.544 19.67 24.646m-19.67-24.646 4.159-13.544m-4.159 13.544 28.499 9.346m-8.829 15.3 11.127 10.769m-11.127-10.769 41.925 9.992m-41.925-9.992 9.104-15.209m-9.104 15.209 13.431 12.545m-2.304-1.776-13.825 13.322m13.825-13.322 30.798-.777m-30.798.777 15.736-14.392m-15.736 14.392 28.887-18.429m-42.712 31.751 8.543 5.329m-8.543-5.329 29.561.999m-21.018 4.33 21.018-4.33m-21.018 4.33 21.018-33.043m0 28.713-13.432-12.545m289.934-34.304v-81.82m0 81.82-13.601-30.863m13.601 30.863-96.776-40.744m96.776-41.076-26.189-33.083m26.189 33.083-70.699-26.866m44.51-6.217 14.949-20.761-78.455 15.321m63.506 5.44-5.283-20.761m5.283 20.761-44.51 6.217m44.51-6.217-63.506-5.44m63.506 5.44-39.677 40.521m39.677-40.521 12.588 84.04m-76.094-89.48-27.088-22.537m27.088 22.537 23.829 45.961m-23.829-45.961-46.87 14.543m19.782-37.08-31.584-23.202-9.329-70.94m40.913 94.142-71.036 15.21m71.036-15.21-30.685-10.435-39.339 7.216h-19.67m48.781-90.923 5.058-15.099.03-1.11m-5.088 16.209-25.402 81.098m25.402-81.098-54.57 51.928m54.57-51.928-24.054-17.097m24.054 17.097-61.033-3.775m61.033 3.775 26.863 3.219-2.135-9.103-23.604 5.884m5.62-77.491-112.849-27.643m112.849 27.643-1.656 61.282m1.656-61.282-99.586 8.771m-13.263-36.414 13.263 36.414m-13.263-36.414 51.535 56.814m-51.535-56.814 76.769 50.18m-63.506-13.766-23.379-50.18m23.379 50.18-75.195 25.423m75.195-25.423 9.105 91.478m-9.105-91.478-8.542 54.731m8.542-54.731-1.037-.759m-22.342-49.421 14.5-6.047m-14.5 6.047 73.622-9.214m-73.622 9.214 29.224 16.986 12.027-3.22m-41.251-13.766-1.573.135m16.747-6.463-20.906-29.975m20.906 29.975-.674.281m.674-.281 58.448-2.886m-79.354-27.089-6.519-1.11-3.934-5.052m10.453 6.162-58.897 73.716m58.897-73.716-74.858 2.443m74.858-2.443-8.318-22.314-23.491 15.875m31.809 6.439-14.5-33.638m14.5 33.638-36.867 39.967m36.867-39.967-6.519-1.319m6.519 1.319-9.442 58.284m9.442-58.284L300.247 140m11.914-21.427 40.351 14.544M263.717 63.62l2.766 3.552m0 0 20.293 26.062m-20.293-26.062-1.192-.282m-13.825-3.27-30.685 34.082m30.685-34.082 28.886 48.514M251.466 63.62l34.908 29.905M251.466 63.62l46.195 21.315M251.466 63.62l13.825 3.27m-13.825-3.27-52.378-9.495m52.378 9.495c1.798.326-26.602-1.197-41.026-1.999m41.026 1.999-74.014 3.71m74.014-3.71-10.791-10.991M101.413 36.42l-36.98 14.655m36.98-14.655 9.217 15.21m-9.217-15.21 57.548 17.652M101.413 36.42l13.713-8.88 19.894-8.882-17.422 10.102-16.185 7.66zm0 0 97.675 17.705m-134.654-3.05-9.442-12.101H44.54m19.895 12.1L57.69 88.267m6.744-37.191 12.139 17.54m-12.14-17.54 44.735 14.21m-44.734-14.21 20.681-2.22m-20.681 2.22 94.527 2.997M44.539 38.974l-11.24 12.1m11.24-12.1-.9 32.417m.9-32.417 7.53 21.204m-7.53-21.204 3.934-13.544 3.597 34.748M33.3 51.075v9.103l1.797 19.206M33.3 51.074l18.77 9.104M33.3 51.075 43.64 71.39m-8.542 7.993 1.574 15.876m-1.574-15.876 22.593 8.882m-22.593-8.882L52.07 60.178M36.67 95.26l-1.574 18.762h7.644M36.67 95.26l21.019-6.995M36.67 95.26l6.969-23.87M36.67 95.26l4.608 2.127m1.462 16.635-9.442 17.984m9.442-17.984 15.96 2.886m-15.96-2.886L57.69 88.265M33.3 132.007l-6.97 8.216m6.97-8.216L58.7 116.908M33.3 132.006l40.351-3.441m-40.35 3.441 19.22 4.219m-19.22-4.219-10.117-1.221m10.116 1.221.32.122m-7.289 8.094-10.34 30.196m10.34-30.196 6.632 20.316m-16.972 9.88 4.383 39.078m-4.383-39.078 12.364 4.552m-12.364-4.552-2.872-11.656m7.255 50.734-1.236 43.741m1.236-43.741v-13.655m0 13.655 13.825 24.535m-13.825-24.535 57.324-14.987m-58.56 58.728 44.622 21.427m-44.622-21.427 15.061-19.206m-15.061 19.206 8.056 26.581m-8.056-26.581 13.375-42.297-12.139-15.099m6.969 84.151-12.589 7.838m12.589-7.838 10.903 20.206m-10.903-20.206-.149-.174m.149.174 36.417 5.329m-36.417-5.329 12.027 11.324 24.39-5.995m-36.417-5.329 6.856-45.961m-13.027 38.745 6.022 7.042m-6.022-7.042-.46.23m17.534 27.192 25.514-14.877m-25.514 14.877h18.658m-18.658 0 25.514-25.534m-36.566 5.154 36.566-25.359m-36.566 25.359 36.566-5.154m0-20.205L20.71 273.006m43.05-18.547v20.205m0-20.205-21.02-41.077m21.02 41.077-29.562-20.428m29.561 20.428 13.938-59.95m-13.938 59.95 13.53 20.697m-13.53-.492 16.186-44.629m-16.186 44.629 12.477 1.982m-12.477-1.982 10.172-17.208m-10.172 27.865-6.856 14.877m0 0 6.542 7.868m-6.542-7.868h10.34l-.561 3.219m0 0 3.934.313m-36.418-69.699-13.825-38.19m13.825 38.19 43.499-39.522m-43.499 39.522 45.747-3.996m-45.747 3.996 8.402-20.309m.14-.34 34.17-47.959m-34.17 47.959-22.367-17.541m22.368 17.541 37.204 16.653M42.74 213.382l-.141.34m.14-.34 43.499 6.994m-65.866-24.535 7.98-20.871m-7.98 20.871L46 181.958m-25.627 13.883 56.537-1.314M28.354 174.97l4.608-14.432m-4.608 14.432L46 181.958m-17.646-6.988 49.343 19.539m-44.735-33.971 22.255 16.43m-22.255-16.43 16.185-7.105m-16.185 7.105-5.508-5.329m5.508 5.329v-42.187m22.255 58.617L46 181.958m9.217-4.99 21.693-11.545m-21.693 11.545 22.48 17.541m-.787-29.086.787 29.086m-.787-29.086-6.856-12.656m6.856 12.656 6.07-21.205m-6.07 21.205 52.041 29.086M76.91 165.423l19.22-16.875m-19.22 16.875 22.255-7.55-29.111-5.106m6.856 12.656 32.063 7.67m-31.276 21.416-.409 80.647m.409-80.647 51.104.444m-51.104-.444 27.987 17.985m-27.987-17.985 31.276-21.416m-31.276 21.416 22.142-28.531m-22.142 28.531-.787.018m3.035 35.508 8.88 18.429-6.632-4.985m-2.248-13.444 6.294-9.659m-6.294 9.659 38.41-3.139M42.6 213.722l39.593 29.757M42.6 213.722l102.986-40.528m-63.393 70.285-8.262 13.977m15.151 1.858-.258-.526 3.934-2.553m-3.676 3.079-2.843 18.922m2.843-18.922c-.19-.388-7.384 9.614-11.793 15.842m8.95 3.08-10.004-1.59m0 0 1.053-1.49m15.47-18.921 6.632 15.764m-6.632-15.764 15.892-17.876m-9.26 33.64 9.554-33.971m0 0-14.387 6.883 3.484-6.883m10.903 0H98.041m10.903 0-4.609-6.661m4.609 6.661-.294.331m-10.61-.331 6.295-6.661m0 0 14.02-4.471m-9.705 11.463 4.115-13.431 1.237-3.442-3.934-3.663m0 0-16.86 8.992-6.969-6.439m23.829-2.553-23.829 2.553m23.829-2.553-4.384-5.329m-19.445 7.882 32.116 6.52m-32.116-6.52 23.154-47.182m36.193 0-.542-.101m.542.101-5.845 7.489m5.845-7.489 11.914-15.321m-28.549 36.636-.15.444m.15-.444 10.79-13.826m-10.79 13.826 30.572-8.215m-33.045 15.542 2.323-6.883m-2.323 6.883-20.794 10.658m-56.537-59.061 20.907-.666m-20.907.666 11.633-10.948m-11.633 10.948L30.49 141.221m39.565 11.546-8.992-10.547m0 0 12.588-13.655M61.062 142.22l-.282.265m12.87-13.92 21.918 8.548m-21.918-8.548 31.697-5.662 2.135 9.103m-33.832-3.441 33.832 3.441m-33.832-3.441-14.949-11.657m14.95 11.657 2.36-48.182m-2.36 48.182-43.162 12.656m43.161-12.656 56.425-16.431m-34.507 24.979-34.788 5.372m34.788-5.372 9.104-19.761m-9.104 19.761-12.588 7.105m12.588-7.105.562 11.435m-.562-11.435 11.914-5.107M60.78 142.485l22.2 1.733m-22.2-1.733-8.26-6.26m8.26 6.26-27.162-10.357m73.864-.122 2.473 5.107 12.814-11.102m-15.287 5.995 15.287-5.995m-15.287 5.995L96.13 148.548m-37.429-31.64 10.79-5.909m.563-.308 21.805-6.661m-21.805 6.661-.562.308m.562-.308L57.69 88.266m12.364 22.425-.045-.039m21.85-6.622 12.813 13.322M91.859 104.03l-3.822-5.44m3.822 5.44 33.607-16.542M91.859 104.03l38.216 8.104m-25.403 5.218-35.18-6.353m35.18 6.353 20.794-29.864m-20.794 29.864 18.097 8.659m-18.097-8.659 39.79 3.664-8.123 1.87m-66.847-11.887.517-.347m6.002-30.269L88.037 98.59M76.011 80.383l-.281.32m.28-.32.563-11.767M88.037 98.59H56.228m31.81 0-18.029 12.062M56.23 98.59l9.216-6.217M56.23 98.59l1.46-10.325M56.23 98.59l13.78 12.062m-4.564-18.279-7.755-4.108m7.755 4.108L52.07 60.178m13.375 32.195L75.45 81.021m-44.96 60.2-3.035 13.988m3.035-13.988 20.906 4.441 1.124-9.437m-22.03 4.996 22.03-4.996m-22.03 4.996-7.306-10.436m7.306 10.436-21.693.999m21.693-.999-10.122 2.942m10.122-2.942 2.473-22.87m-5.508 36.858-10.116 8.881-4.22-5.328m14.336-3.553-7.087-11.046M57.69 88.265l18.883-19.65m-6.564 42.037L41.28 97.387m10.79-37.209 23.66 20.524M52.07 60.178l24.504 8.438m0 0 32.595-3.331m-32.595 3.33 53.502 43.519m-1.274 82.819-23.117 17.541m0 0 3.709-39.3m0 0-.42-.101m0 0 4.916-5.783m-4.916 5.783 20.54-7.67m-20.54 7.67 30.768 7.59m-30.768-7.59h36.071m-31.155-5.783 6.519-5.884m-6.519 5.884-4.916-5.884m4.916 5.884 31.155 5.783m-24.636-11.667h-11.435m11.435 0 9.105 3.997m-9.105-3.997 23.379-2.998m-23.379 2.998 4.384-5.662m-4.384 5.662-4.72-5.662m-6.715 5.662 6.715-5.662m29.898 17.329-1.799-14.665m0 0-14.274 6.995m14.274-6.995-6.406-10.546m6.406 10.546-23.379-13.1-11.015 7.439 34.394 5.661zm-6.406-10.546L125.466 139m11.915 8.882-15.512 2.331L125.466 139m11.915 8.882-6.295 3.941m-6.294 3.941h-9.104m9.104 0 6.294-3.941m-6.294 3.941 6.182-9.769.112 5.828M125.466 139l-37.091 13.767 11.464 13.211M125.466 139l-25.627 26.978M125.466 139l11.915 8.105 20.119 10.768M125.466 139l37.317-5.923m-62.944 32.901 21.019 14.705-43.948 13.844m82.613-8.233-7.418-10.769m7.418 10.769-14.479-13.201m14.479 13.201-19.782-5.611m19.782 5.611 6.182-12.545m-6.182 12.545 27.641-18.091m-35.059 7.322 13.6-1.776m-20.661-.656 42.12-4.89m-42.12 4.89 19.987.635m.674.021-.674-.021m22.133-5.525 17.206-21.098m-17.206 21.098 39.124-23.874m-39.124 23.874-6.51-39.194m6.51 39.194 78.913 62.276m-61.707-83.374 21.918-2.776m-21.918 2.776L196.952 139m7.418 8.105 7.935-12.073m-7.935 12.073-23.716-2.776h45.634m0 0-13.6-9.88m13.6 9.88 11.015-23.313m-11.015 23.313-26.526 20.761m26.526-20.761-19.332 69.83m19.332-69.83 8.075 59.968m-8.075-59.968 26.601 47.294m-26.601-47.294-30.082 60.635m16.482-70.515h-26.639m26.639 0L196.952 139m15.736-4.551-13.6-23.647m13.6 23.647-38.553-13.433m38.553 13.433-.383.583m.383-.583 24.615-13.433m-51.254 13.433L196.952 139m-10.903-4.551-5.395-5.44m5.395 5.44L157.5 157.873m28.549-23.424 13.039-23.647m-73.622-23.314-50.017-6.467m50.017 6.467h29.786m-29.786 0 4.609 24.646m-4.609-24.646 26.639-18.873m-26.639 18.873 39.565 24.646h-12.926m-26.639-24.646L111.939 69.06M75.449 81.02l.28-.319m33.439-15.417L75.73 80.702m33.438-15.417-24.053-16.43m24.053 16.43 1.462-13.655m-1.462 13.655 49.793-11.213m-49.793 11.213 63.056-22.87 1.237 11.657-62.831-2.442m-1.462 13.655 38.666 3.775h-35.895m-2.771-3.775 2.771 3.775M85.115 48.853l25.515 2.776m-25.515-2.776 53.614-12.434-28.099 15.21m0 0 61.594-23.425 43.948 12.878L110.63 51.63zM43.64 71.39l-2.36 25.997m88.795 14.747-7.306 13.877m7.306-13.877 25.177-24.646m-25.177 24.646h22.03m-22.03 0 6.264 10.752m-13.57 3.125 18.883 5.995m-18.883-5.995 13.57-3.125m5.313 9.12-5.313-9.12m5.313 9.12 21.58-4.218-4.046-1.777m-3.934-38.523-3.147 24.646m3.147-24.646-.666-3.996m-2.481 28.642-3.934 9.992 11.015 3.885m-7.081-13.322 7.081 13.322m0 0-21.581-3.108-1.266-.017m15.766-54.27 40.463-28.976-7.294 23.758m-33.169 5.217 23.828 25.201m-23.828-25.2.074.444m23.754 24.756.179-.582m-.179.582 1.484-18m-22.831 7.676 4.375-2.332-6.782-12.1m2.407 14.432-2.407-14.433M23.183 130.786 8.796 141.221l1.45 5.884m12.937-16.32-.296.374m.296-.374 15.286-10.768-5.507-1.666m-22.716 28.754 2.872 11.657m-2.872-11.657 10.121-2.942m-10.121 2.942 12.641-15.946m-9.77 27.603 7.25-14.599m13.251-12.035-9.423-7.449-1.308 6.48m0 0 10.075-12.808M157.5 157.873l5.732-24.867m0 0 17.422-3.997m-17.422 3.997-.449.071m17.871-4.068-17.422 2.997 1.799 41.722m34.057-62.926-10.229-14.543m10.229 14.543-24.953 10.214m24.953-10.214 21.693-13.1m-21.693 13.1 18.993 1.309m-43.946 8.905 14.724-24.757m0 0 31.922 1.443m0 0 59.571 14.432m-59.571-14.432 16.522 23.314m-16.522-23.314-9.832-34.304m7.471 48.736-6.115 22.898m6.115-22.898 17.872 8.406m-17.872-8.406-.339-.023m19.222 8.905-2.94 83.281m2.94-83.281 15.961 71.273m-15.961-71.273-1.011-.476m1.011.476 49.071-27.491m-49.071 27.491 37.991 37.524m-75.532 6.55-36.979-32.013m36.979 32.013 7.194 49.069m0 0-8.992 20.538m8.992-20.538-10.75-9.195m37.95-.13.207-.537m-.207.537-42.037 47.182m42.037-47.182 19.108-12.545m-19.108 12.545 12.589 47.182m19.332-21.537 18.097 15.653m-18.097-15.653-19.332 21.537m19.332-21.537-14.611 39.522m14.611-39.522-1.011.062m-67.102 4.156 36.399-30.4m-36.399 30.4 67.102-4.156m-67.102 4.156 53.502 35.304m-53.502-35.304-1.758-29.733m-4.087 47.052-44.847 10.769 3.484 8.659m41.363-19.428-10.004 47.849m10.004-47.849 59.347 17.985m-59.347-17.985-41.363 19.428m41.363-19.428 53.839-.888m7.306-58.839 49.455-15.432m-49.455 15.432-.375-.666m.375.666-6.519 59.727M236.292 120.54l44.06-8.406m0 0L210.44 61.621m69.912 50.513 17.309-27.199m-17.309 27.199 25.29 5.12m-87.561-5.143 67.891-18.295m0 0 .402-.291m-.402.291 11.689-8.881m-10.885 8.299-.402.291m.402-.291 14.932 19.177m-14.932-19.177 33.702 7.688m-34.104-7.397-101.1-30.127m25.166-1.777-32.988 5.71m32.988-5.71-11.352-7.496m11.352 7.496.509 1.777m-.509-1.777-17.872-1.505m105.093 24.819 22.817 15.987m-22.817-15.987 53.615 13.766m-53.615-13.766 13.151-8.104h48.332l-61.483 8.104zm0 0-2.247-12.1-30.123-5.945m36.417 45.521c2.585-3.793 8.025-11.645 9.104-12.71l10.678 9.658m-19.782 3.052 19.782-3.052m-19.782 3.052-26.414 46.129m46.196-49.181 40.913 1.776-16.298 2.776-24.615-4.552zm-1.012-8.437 30.798-2.22m0 0 11.127-11.214 33.383 6.328-44.51 4.885zm-75.982 59.838 42.599-26.423m-42.599 26.423 27.425 18.317m-27.425-18.317 41.026-3.529m1.573-22.894-12.251-14.863m12.251 14.863 86.885-6.217-52.266 7.217m-34.619-1 34.619 1m-49.793 43.74 37.516 27.44m-7.842-55.468L300.247 140m0 0 52.265-6.883m0 0 39.003 12.545m-39.003-12.545 50.692 8.104M176.112 93.234l75.354-5.746-73.959-12.767-.09 1.094m-1.305 17.419 9.162-29.836m-25.603 1.887-6.667-1.887-26.526 9.77 44.959-4.553-11.766-3.33zm0 0 17.836-11.213-.02 4.774m-17.816 6.439 17.746 10.53m0 0 .035-8.484m.035-8.485-.035 8.485m.035-8.485 15.081 1.27m6.52-5.99 19.332 6.163-7.471 3.109m-11.861-9.273 44.06-9.6-50.58 15.591m6.52-5.99-6.52 5.99m6.52-5.99 41.587-1.497m12.214 138.994 30.917 53.869m.368.64-37.429 5.884m37.429-5.884 11.015 5.884m-11.015-5.884-.368-.64m-37.061 6.524-5.733 47.849m10.454-29.864 65.303 65.389m-65.303-65.389-69.351 29.864m69.351-29.864-100.71 1.443m100.71-1.443-10.454 29.864m75.757 35.525-7.081-58.395m7.081 58.395 15.961-75.603m-15.961 75.603 33.608-38.856m-33.608 38.856 42.375 20.316m-42.375-20.316 35.518 22.87m-35.518-22.87 2.889 15.321m-2.889-15.321-134.654-35.525m134.654 35.525-75.757-35.525m75.757 35.525-37.429 18.096m37.429-18.096-63.73-2.997m63.73 2.997 63.143-9.318m-63.143 9.318 11.577-32.972m-18.658-25.423L276.193 263.4m33.495 13.595-25.882-31.503m25.882 31.503 18.658 25.423m-18.658-25.423-25.514-19.428 44.172 44.851m-82.388-51.29-6.969 30.641 2.023 18.096m4.946-48.737 30.235 12.272m-30.235-12.272-83.4 39.411m78.454 9.326 35.181-36.465m-35.181 36.465 90.706-39.63m-90.706 39.63-90.256-28.421m90.256 28.421-37.878 31.418m37.878-31.418h-58.897m58.897 0-78.454-9.326m78.454 9.326 28.775 2.476m-28.775-2.476 12.027 32.528m-12.027-32.528 8.88 44.962m-8.88-44.962 109.365-3.331m-85.311-65.993 11.127 32.859m0 0 18.996-11.384M276.193 263.4l-5.507 39.018m24.503-50.402 55.188 44.518m-17.647-36.747-1.012.448m1.012-.448 40.351 10.214m-40.351-10.214 17.811 37.857m-.164-1.11-10.142-92.237m10.142 92.237 58.335 26.2m-58.335-26.2 34.956 68.165m-34.956-68.165 29.167 29.17m-29.167-29.17 22.704-26.533m-22.704 26.533 53.052-6.217m-53.052 6.217.164 1.11m-18.823-37.409 73.06-29.694m0 0-64.543-26.244m64.543 26.244v-11.719m0 11.719 32.774 26.138m-32.774-26.138-42.487-9.943 42.487-1.776m0 11.719 27.875-6.834-11.69 88.814m-16.185-81.98 16.185 81.98m-80.728-108.224 39.309 21.159m-20.4 130.25 26.189 8.993m-26.189-8.993-6.857 2.554m6.857-2.554 49.568-32.972m-49.568 32.972-8.603-58.062m1.746 60.616-19.557 7.549m19.557-7.549-16.241-3.386m16.241 3.386v12.101m0-12.101 33.046 22.869m-65.529-29.641-13.825 15.764m13.825-15.764-.146-.777m.146.777 16.242 3.386m-30.067 12.378 25.739-1.388m-25.739 1.388h-6.294m6.294 0 4.721 35.082m22.03-36.525-13.072-15.098m13.072 15.098-1.012.055m20.569 4.497-20.569-4.497m20.569 4.497 6.857 2.234m-23.098-17.721 12.757 33.027m-12.757-33.027 32.38 26.255m-19.623 6.772 26.863 12.323-1.292-7.66m-25.571-4.663-27.538-11.767-42.599 4.884m70.137 6.883 2.023 1.253m22.255-4.25-4.655-3.775m4.655 3.775 16.073 27.976m-16.073-27.976 1.293 7.66m10.959-11.435-26.189-8.534m26.189 8.534v-16.43m0 16.43 18.658 1.999m-18.658-1.999 9.778 17.097 8.88-15.098m-18.658-1.999-2.473 17.097m2.473-17.097h-16.907m16.907-16.43-26.189 7.896m26.189-7.896 23.379-41.965m-23.379 41.965 18.658 18.429m4.721-60.394-.851-5.218m.851 5.218-29.168 2.97m29.168-2.97 12.251-10.213m-12.251 10.213-3.709 38.634m3.709-6.494 31.809-12.046-25.852-24.535-5.957 36.581zm0 0-28.8-28.802m-.368-.368 30.124-68.137m-30.124 68.137.368.368m-.368-.368 23.885-35.387m-23.885 35.387 28.317-8.188m2.199-60.837 29.142.888m-29.142-.888-.392.888m-36.587 12.434 30.348 20.316m0 0 35.773-32.75m-35.773 32.75 4.27 26.2m31.503-58.95-42.854-7.771 28.437-41.41m14.417 49.181-14.417-49.181m14.417 49.181-1.65-.888m1.65.888 27.957-34.748-62.381-3.997m20.007-10.436-15.117 49.181m27.884-.888-32.774-37.857m32.774 37.857-58.008-31.223m25.234-6.634-25.234 6.634m-228.788 45.988 31.359 28.421m0 0 21.019 31.418m-21.019-31.418-42.711 5.439m42.711-5.439-6.968 53.621m6.968-53.621 70.924 32.528m-111.837-58.506-1.798 31.417m1.798-31.417 21.356 16.652m-23.154 14.765 27.987 63.724m35.743-37.745-40.576-40.744m40.576 40.744-65.641 4.107 25.065-44.851m40.576 40.744-27.987 22.203m27.987-22.203 49.905 1.11m-49.905-1.11 46.758 13.544m-46.758-13.544 21.468 12.1m-21.468-12.1 6.856 16.763m-6.856-16.763-3.473 26.533m-24.514-4.33 24.514 4.33m-24.514-4.33-14.275 14.321m14.275-14.321-42.487 11.657m120.379-32.75 13.038 18.146m-13.038-18.146 18.422 14.774m-.775-44.749 31.247 7.66m-31.247-7.66-.899-.077m32.146 7.737-5.171 51.29m5.171-51.29-84.749 39.411m79.578 11.879 2.923 5.884m-2.923-5.884-26.975-59.027m26.975 59.027-57.436-6.106m57.436 6.106-21.131-7.457m24.054 13.341 11.015 35.082m-31.36-48.848-3.709.425m3.709-.425-7.879-6.319m-21.569-2.34 6.631 2.34m-31.921-3.784-14.612 4.663m14.612-4.663 26.639 3.997-16.748 3.553m-9.891-7.55 9.891 7.55m-24.503-2.887 7.194 1.443m-7.194-1.443-10.329 9.77m10.329-9.77 14.05 4.441-24.379 5.329m17.523-8.327-7.508 35.415m7.508-35.415-7.508 10.248m181.839-214.075 11.689-4.441m-11.689 4.441 75.644 13.544-63.955-17.985m-44.06 27.421-42.824-13.631m42.824 13.631 102.989 16.092m-102.989-16.092-5.508 3.22 107.566 12.989m0 0 98.799 35.747-66.99-39.744-30.878 3.88m-.931.117.931-.117m-54.272 132.782-.162-.999m0 0 13.264-3.996m-13.264 3.996 10.117-17.541m3.147 13.545 51.591-8.438m-53.951-5.107 53.951 5.107m0 0 25.964-34.304 4.609 3.997-30.573 30.307zm-305.163 64.945 32.27-11.212m-32.27 11.212-.674 8.327-8.205-5.551 8.879-2.776zm-6.519-1.221 2.473 5.44-7.868 5.551v-7.993m5.395-2.998-5.395 2.998m-46.309 28.42 27.763 15.321m-27.763-15.321 14.837-2.646m1.349-.24 11.577 18.207m-11.577-18.207 7.306-12.545m-7.306 12.545-8.542-17.541m8.542 17.541-1.349.24m12.926 17.967 4.833-16.653m-4.833 16.653-4.271-30.752m9.104 14.099 19.108-12.212m-19.108 12.212-9.104-14.099m28.212 1.887-28.212-1.887m0 0-15.848-4.996m15.848 4.996-13.713-12.989-11.127 2.442 24.84 10.547zm0 0v-18.651m0 18.651 22.817-12.989m-38.665 7.993-18.016 20.427m0 0 25.209-2.646m-25.209 2.646-2.457-7.716m27.666 5.07-21.468-3.934m-6.198-1.136 6.198 1.136m9.666-21.84-9.666 21.84m30.123-27.502 22.817 5.662m-8.88 55.619 11.015 8.327m0 0-11.721 14.835m13.726 34.012-9.648 1.333-3.372-21.76 13.02 20.427zm-25.362-16.891 7.509 18.224 15.174 6.271m-22.683-24.495 22.683 24.495m14.275 11.935-18.771 2.332-1.574-5.44 20.345 3.108zm0 0-15.736 9.77 14.274 3.219m1.462-12.989-1.462 12.989m0 0 3.822-5.439 5.17 7.993-8.992-2.554zm70.924-463.497 67.889 2.997 14.387 7.772-82.276-10.769zm280.436 349.483-117.12-18.984m121.953 53.288 52.265 43.519m-52.265-43.519-70.699-31.418m122.964 74.937-83.175-9.881m0 0-94.865 55.62 4.687-28.218m90.178-27.402-23.042-14.21m23.042 14.21v-14.21h-23.042m23.042 14.21-90.031 28.31m50.242-93.366 16.747 50.846m-16.747-50.846-47.546 23.98m47.546-23.98-11.802-46.738m11.802 46.738-.899-.237m17.646 51.083 30.123-44.074m-30.123 44.074-76.993-19.428m76.993 19.428-66.989 42.52m97.112-86.594-58.672-53.51m58.672 53.51-97.112-50.402m97.112 50.402-101.946-21.315m43.274-32.195-35.744 70.718m0 0-46.797 7.732m46.797-7.732-12.7 7.438m12.7-7.438-2.696-12.212m2.696 12.212-15.449-6.328 12.753-5.884m2.696 12.212-13.936-1.554-4.609-14.544m18.545 16.098-18.545-16.098m15.849-51.512-1.753 10.547m-3.081 18.54 54.177 14.306m-54.177-14.306 3.081-18.54m-8.251 64.501 9.857 61.04m-9.857-61.04h-33.495m33.495 0 7.868-31.751m-7.868 31.751-8.43-9.437m18.434 71.385-.147-.908m0 0-31.1 12.675-15.961-7.105m47.061-5.57-47.061 5.57m47.061-5.57-43.352-61.04M330.37 542.549l-1.911-17.652m1.911 17.652-14.612-14.322m0 0-.45.707m.45-.707-3.597-8.437m3.597 8.437-18.484-10.97m18.484 10.97 9.104-10.97m3.597 7.64-3.597-7.64m3.597 7.64-16.298-5.107m16.298 5.107-26.583 20.205m55.919-42.076 3.709-66.61m-3.709 66.61-69.35-30.974m73.059-35.636-5.732-11.213m5.732 11.213 8.318-21.093m-8.318 21.093-.602.294m.602-.294-14.949-5.995 9.217-5.218m5.732 11.213-34.323-23.536m-38.736 59.172 10.228-60.282m-10.228 60.282-32.821-51.178m32.821 51.178-28.437 5.662m28.437-5.662.216.334-4.263 24.979m4.047-25.313 27.976-65.833m-27.976 65.833 72.457-35.342m-62.229-24.94 17.984-6.106m-17.984 6.106-43.049 9.104m43.049-9.104-20.007-30.752m37.991 24.646-37.991-24.646m37.991 24.646 29.336 8.548m-29.336-8.548-.236.555m.236-.555 39.115 19.539m-39.115-19.539 10.524 7.216m-71.557 7.994 4.384 56.84m-4.384-56.84-6.968 18.095-40.689-31.973m47.657 13.878-9.554 32.417m9.554-32.417-9.554 10.879m9.554-10.879-15.623-4.55m15.623 4.55-16.86 19.428m16.86-19.428L262.593 403m-6.969 17.874-29.51-25.312m33.894 82.152-13.938-24.423m13.938 24.423-26.302-17.984m26.302 17.984 24.39 19.651m-24.39-19.651-8.205 1 11.689 4.995m-3.484-5.995 3.484 5.995m-55.525-76.713 32.034 9.328m-32.034-9.328 12.701 27.755m25.402 18.54-25.402-18.54m25.402 18.54v-21.538m0 21.538-12.364 6.439m-13.038-24.979 25.402-2.998m-25.402 2.998 5.508-39.634m-5.508 39.634L237.191 403m-16.523 31.751 13.038 24.979m-13.038-24.979 18.096 5.551m0 0 1.237-23.978m-1.237 23.978-5.058 19.428m6.295-43.406L237.191 403m2.81 13.324L262.593 403m-25.402 0h25.402m-25.402 0 28.999-18.096M237.191 403l14.05-36.525M237.191 403l-11.015-7.883M262.593 403l-1.124-2.776m1.124 2.776-36.417-7.883m35.293 5.107 4.721-15.32m-4.721 15.32-4.384-21.426m9.105 6.106-1.124-9.548m1.124 9.548-14.949-18.429m14.949 18.429-40.076 10.658m38.952-20.206-7.981 3.442m7.981-3.442 10.565-21.445m-10.565 21.445 1.011-24.817m-8.992 28.259-30.971 16.764m25.127-29.087-11.915-11.213m11.915 11.213-20.232 2.553m20.232-2.553 5.282-19.308m-5.282 19.308 24.39-12.564M233.706 459.73l5.058 21.426m0 0 24.728 2.553m-37.378-88.147-25.505-9.104m25.505 9.104 4.895-26.534m-4.895 26.534-16.438-10.658m22.794 126.782-15.736 15.209m15.736-15.209-36.08 3.185m76.544-20.504 13.6 8.104m-13.6-8.104 11.464 2.998m2.136 5.106-2.136-5.106m2.136 5.106 18.096 9.77m-18.096-9.77 10.74 14.786m.275.091-.275-.091m.275.091 14.612 2.442m-14.887-2.533 7.356-5.016m0 0 20.232 5.016m-12.701 2.533 12.701-2.442m129.484-112.587-51.096-32.846m0 0-5.329 19.095m-166.912-21.982-30.4 17.43m30.4-17.43-15.624-8.326 16.973-12.656-1.349 20.982zm0 0 8.317-13.766m-4.833-4.329 4.833 4.329m0 0-15.848 5.44-1.798-5.44h17.646zm-38.677-4.995 9.027 9.47m46.847-12.57 9.554 3.372m9.554 3.372-2.472-.873m-7.082-2.499 7.082 2.499m-1.698-5.871 1.698 5.871m37.541 49.296-25.964-37.635L324.3 393.23m-13.6 9.104 13.6-9.104m0 0 21.693 20.982M324.3 393.23l-7.879 12.989m7.879-12.989 26.526-4.076M324.3 393.23l41.925 11.99m-20.232 8.992 20.232-8.992m-20.232 8.992 12.476 2.894m-12.476-2.894-1.236-18.095-17.576 16.763m18.812 1.332-18.743-1.284-.069-.048m42.641 2.443 16.747 11.656m-16.747-11.656-10.903 1.887m10.903-1.887 19.332-2.443m-2.585 14.099-25.667 9.731m25.667-9.731 16.298-22.314m2.136 12.101-2.136-11.546m2.136 11.546-15.849-3.886m0 0-6.294-14.654m6.294 14.654-.562-.348m.562.348 5.957-3.569m-12.251-11.085-12.965 17.087-12.437-6.54 1.461 8.437m23.941-18.984 15.061-7.216m-15.061 7.216 20.007 6.439m-20.007-6.439 12.251 11.085m-36.192 7.899 7.306-11.99m-7.306 11.99-.45-.104m7.756-11.886-15.399-16.066m7.643 27.952-19.894 4.989 13.825 6.883 6.069-11.872zm44.398-12.441-4.946-13.655m4.946 13.655-7.756 4.646m-20.737-16.747 14.218 19.968m0 0-37.766-23.378M173.461 8.888l38.215 6.217L192.568 8l-19.107.888zM277.767 278.66l36.642-21.981 5.395 5.44-42.037 16.541zM424.785 91.93l3.709 11.101 40.463-43.852-44.172 32.75zM218.081 46.633l16.187-16.43h22.817l-39.004 16.43zm52.605-19.65 26.975-1.776 34.732 4.995-61.707-3.219zm36.754 22.092 3.372-2.442 29.449 5.995-32.821-3.553zm32.821 9.77 12.251 1.27 1.124-5.99-13.375 4.72zm4.72 8.485 31.247-18.255h4.159l-35.406 18.255zm-74.295-18.255 15.286 1.555 5.283-6.106-20.569 4.551zm240.421 49.625 73.059-2.442-10.003 3.885-63.056-1.443zM177.057 535l16.186 5.218v-15.653l-16.186 10.435zm310.109-302.744 26.976 7.105 31.247-3.663-58.223-3.442z" stroke="#fff" stroke-width=".5"/><ellipse cx="9.587" cy="291.649" rx="2.136" ry="2.109" fill="#fff"/><ellipse cx="21.948" cy="299.643" rx="2.136" ry="2.109" fill="#fff"/><ellipse cx="37.235" cy="310.967" rx="2.136" ry="2.109" fill="#fff"/><ellipse cx="63.31" cy="307.858" rx="2.136" ry="2.109" fill="#fff"/><ellipse cx="43.756" cy="310.301" rx="1.461" ry="1.443" fill="#fff"/><ellipse cx="89.838" cy="304.749" rx="1.911" ry="1.887" fill="#fff"/><ellipse cx="96.358" cy="296.756" rx="1.911" ry="1.887" fill="#fff"/><ellipse cx="100.179" cy="280.77" rx="1.911" ry="1.887" fill="#fff"/><ellipse cx="98.381" cy="237.695" rx="1.911" ry="1.887" fill="#fff"/><ellipse cx="118.387" cy="226.815" rx="1.911" ry="1.887" fill="#fff"/><ellipse cx="128.053" cy="209.497" rx="1.911" ry="1.887" fill="#fff"/><ellipse cx="139.968" cy="204.612" rx="1.911" ry="1.887" fill="#fff"/><ellipse cx="129.177" cy="194.398" rx="1.911" ry="1.887" fill="#fff"/><ellipse cx="126.591" cy="201.837" rx="1.349" ry="1.332" fill="#fff"/><ellipse cx="109.733" cy="173.194" rx="1.349" ry="1.332" fill="#fff"/><ellipse cx="114.003" cy="167.865" rx="1.798" ry="1.776" fill="#fff"/><ellipse cx="125.467" cy="139.001" rx="1.798" ry="1.776" fill="#fff"/><ellipse cx="145.361" cy="197.951" rx="1.911" ry="1.887" fill="#fff"/><ellipse cx="154.128" cy="199.727" rx="1.911" ry="1.887" fill="#fff"/><ellipse cx="167.393" cy="185.295" rx="1.911" ry="1.887" fill="#fff"/><ellipse cx="187.401" cy="167.754" rx="1.911" ry="1.887" fill="#fff"/><ellipse cx="63.535" cy="274.775" rx="1.911" ry="1.887" fill="#fff"/><ellipse cx="27.794" cy="279.66" rx="1.911" ry="1.887" fill="#fff"/><ellipse cx="8.911" cy="278.993" rx="1.911" ry="1.887" fill="#fff"/><ellipse cx="12.731" cy="264.339" rx="1.911" ry="1.887" fill="#fff"/><ellipse cx="39.485" cy="291.427" rx="1.911" ry="1.887" fill="#fff"/><ellipse cx="19.029" cy="252.793" rx="1.911" ry="1.887" fill="#fff"/><ellipse cx="34.088" cy="233.921" rx="1.911" ry="1.887" fill="#fff"/><ellipse cx="63.535" cy="254.569" rx="1.911" ry="1.887" fill="#fff"/><ellipse cx="79.946" cy="230.146" rx="1.911" ry="1.887" fill="#fff"/><ellipse cx="88.264" cy="247.908" rx="1.911" ry="1.887" fill="#fff"/><ellipse cx="77.025" cy="274.997" rx="1.686" ry="1.665" fill="#fff"/><ellipse cx="42.626" cy="213.715" rx="1.911" ry="1.887" fill="#fff"/><ellipse cx="21.05" cy="196.397" rx="1.911" ry="1.887" fill="#fff"/><ellipse cx="20.825" cy="209.941" rx="1.911" ry="1.887" fill="#fff"/><ellipse cx="15.654" cy="170.862" rx="1.911" ry="1.887" fill="#fff"/><ellipse cx="32.96" cy="159.983" rx="1.911" ry="1.887" fill="#fff"/><ellipse cx="49.037" cy="153.433" rx="1.349" ry="1.332" fill="#fff"/><ellipse cx="69.492" cy="152.767" rx="2.023" ry="1.998" fill="#fff"/><ellipse cx="60.95" cy="142.553" rx="2.023" ry="1.998" fill="#fff"/><ellipse cx="51.059" cy="145.44" rx="1.349" ry="1.332" fill="#fff"/><ellipse cx="52.412" cy="136.558" rx="1.349" ry="1.332" fill="#fff"/><ellipse cx="30.267" cy="141.332" rx="2.136" ry="2.109" fill="#fff"/><ellipse cx="76.465" cy="165.423" rx="2.023" ry="1.998" fill="#fff"/><ellipse cx="94.894" cy="137.224" rx="2.023" ry="1.998" fill="#fff"/><ellipse cx="107.71" cy="131.674" rx="2.023" ry="1.998" fill="#fff"/><ellipse cx="109.845" cy="136.669" rx="1.461" ry="1.443" fill="#fff"/><ellipse cx="73.876" cy="128.898" rx="1.461" ry="1.443" fill="#fff"/><ellipse cx="33.413" cy="132.007" rx="1.686" ry="1.665" fill="#fff"/><ellipse cx="8.909" cy="141.998" rx="1.686" ry="1.665" fill="#fff"/><ellipse cx="24.647" cy="124.679" rx="1.686" ry="1.665" fill="#fff"/><ellipse cx="32.964" cy="118.019" rx="1.236" ry="1.221" fill="#fff"/><ellipse cx="38.359" cy="120.461" rx="1.236" ry="1.221" fill="#fff"/><ellipse cx="35.209" cy="113.356" rx="1.911" ry="1.887" fill="#fff"/><ellipse cx="69.603" cy="111.357" rx="1.911" ry="1.887" fill="#fff"/><ellipse cx="36.337" cy="94.483" rx="1.911" ry="1.887" fill="#fff"/><ellipse cx="56.569" cy="98.257" rx="1.911" ry="1.887" fill="#fff"/><ellipse cx="88.038" cy="98.257" rx="1.911" ry="1.887" fill="#fff"/><ellipse cx="91.863" cy="104.253" rx="1.911" ry="1.887" fill="#fff"/><ellipse cx="125.579" cy="87.821" rx="1.911" ry="1.887" fill="#fff"/><ellipse cx="212.577" cy="135.337" rx="1.911" ry="1.887" fill="#fff"/><ellipse cx="237.305" cy="120.239" rx="1.911" ry="1.887" fill="#fff"/><ellipse cx="226.067" cy="144.218" rx="1.686" ry="1.665" fill="#fff"/><ellipse cx="302.274" cy="176.857" rx="2.36" ry="2.331" fill="#fff"/><ellipse cx="253.039" cy="193.288" rx="2.36" ry="2.331" fill="#fff"/><ellipse cx="238.202" cy="192.178" rx="1.236" ry="1.221" fill="#fff"/><ellipse cx="234.161" cy="204.612" rx="2.136" ry="2.109" fill="#fff"/><ellipse cx="195.042" cy="203.946" rx="1.461" ry="1.443" fill="#fff"/><ellipse cx="198.302" cy="234.254" rx="1.798" ry="1.776" fill="#fff"/><ellipse cx="192.46" cy="251.794" rx="1.798" ry="1.776" fill="#fff"/><ellipse cx="147.723" cy="262.896" rx="1.574" ry="1.554" fill="#fff"/><ellipse cx="151.208" cy="271.666" rx="2.136" ry="2.109" fill="#fff"/><ellipse cx="127.378" cy="297.866" rx="2.136" ry="2.109" fill="#fff"/><ellipse cx="182.455" cy="299.865" rx="2.136" ry="2.109" fill="#fff"/><ellipse cx="241.123" cy="298.755" rx="2.136" ry="2.109" fill="#fff"/><ellipse cx="270.125" cy="302.973" rx="2.136" ry="2.109" fill="#fff"/><ellipse cx="302.271" cy="310.522" rx="2.136" ry="2.109" fill="#fff"/><ellipse cx="249.67" cy="344.494" rx="2.136" ry="2.109" fill="#fff"/><ellipse cx="136.372" cy="414.213" rx="2.136" ry="2.109" fill="#fff"/><ellipse cx="155.254" cy="419.763" rx="2.136" ry="2.109" fill="#fff"/><ellipse cx="168.855" cy="446.963" rx="1.574" ry="1.554" fill="#fff"/><ellipse cx="165.709" cy="494.034" rx="2.698" ry="2.664" fill="#fff"/><ellipse cx="188.073" cy="507.245" rx="1.686" ry="1.665" fill="#fff"/><ellipse cx="178.854" cy="518.569" rx="1.686" ry="1.665" fill="#fff"/><ellipse cx="173.577" cy="510.687" rx="1.124" ry="1.11" fill="#fff"/><ellipse cx="169.866" cy="516.127" rx=".787" ry=".777" fill="#fff"/><ellipse cx="155.369" cy="512.907" rx="1.124" ry="1.11" fill="#fff"/><ellipse cx="152.444" cy="505.58" rx="1.124" ry="1.11" fill="#fff"/><ellipse cx="171.439" cy="503.248" rx="1.686" ry="1.665" fill="#fff"/><ellipse cx="176.835" cy="504.359" rx=".562" ry=".555" fill="#fff"/><ellipse cx="150.534" cy="500.14" rx="1.461" ry="1.443" fill="#fff"/><ellipse cx="193.243" cy="524.342" rx="1.461" ry="1.443" fill="#fff"/><ellipse cx="177.175" cy="534.667" rx="1.124" ry="1.11" fill="#fff"/><ellipse cx="193.358" cy="540.217" rx=".674" ry=".666" fill="#fff"/><ellipse cx="186.389" cy="492.924" rx="1.124" ry="1.11" fill="#fff"/><ellipse cx="159.64" cy="483.376" rx="1.124" ry="1.11" fill="#fff"/><ellipse cx="157.391" cy="491.37" rx="1.124" ry="1.11" fill="#fff"/><ellipse cx="150.084" cy="484.82" rx=".562" ry=".555" fill="#fff"/><ellipse cx="146.712" cy="463.282" rx=".562" ry=".555" fill="#fff"/><ellipse cx="165.031" cy="414.546" rx=".899" ry=".888" fill="#fff"/><ellipse cx="167.281" cy="401.667" rx="1.349" ry="1.332" fill="#fff"/><ellipse cx="141.65" cy="398.115" rx="1.349" ry="1.332" fill="#fff"/><ellipse cx="96.243" cy="391.676" rx="1.349" ry="1.332" fill="#fff"/><ellipse cx="93.436" cy="383.794" rx="1.012" ry=".999" fill="#fff"/><ellipse cx="98.943" cy="371.915" rx="1.798" ry="1.776" fill="#fff"/><ellipse cx="93.658" cy="369.584" rx=".562" ry=".555" fill="#fff"/><ellipse cx="107.37" cy="366.919" rx="1.012" ry=".999" fill="#fff"/><ellipse cx="108.27" cy="373.58" rx="1.012" ry=".999" fill="#fff"/><ellipse cx="118.837" cy="370.472" rx="2.136" ry="2.109" fill="#fff"/><ellipse cx="132.438" cy="365.254" rx="1.349" ry="1.332" fill="#fff"/><ellipse cx="98.941" cy="399.225" rx=".899" ry=".888" fill="#fff"/><ellipse cx="173.128" cy="388.346" rx=".674" ry=".666" fill="#fff"/><ellipse cx="141.542" cy="484.819" rx="1.461" ry="1.443" fill="#fff"/><ellipse cx="134.234" cy="465.836" rx="2.023" ry="1.998" fill="#fff"/><ellipse cx="144.128" cy="454.734" rx="1.574" ry="1.554" fill="#fff"/><ellipse cx="153.68" cy="467.723" rx="1.012" ry=".999" fill="#fff"/><ellipse cx="153.455" cy="455.733" rx=".562" ry=".555" fill="#fff"/><ellipse cx="146.038" cy="449.516" rx=".562" ry=".555" fill="#fff"/><ellipse cx="126.931" cy="451.736" rx=".562" ry=".555" fill="#fff"/><ellipse cx="157.613" cy="434.751" rx=".899" ry=".888" fill="#fff"/><ellipse cx="125.581" cy="432.863" rx="1.461" ry="1.443" fill="#fff"/><ellipse cx="119.283" cy="432.642" rx=".787" ry=".777" fill="#fff"/><ellipse cx="125.134" cy="418.653" rx="1.236" ry="1.221" fill="#fff"/><ellipse cx="106.021" cy="420.874" rx="1.236" ry="1.221" fill="#fff"/><ellipse cx="108.946" cy="399.336" rx=".787" ry=".777" fill="#fff"/><ellipse cx="125.017" cy="396.117" rx="1.349" ry="1.332" fill="#fff"/><ellipse cx="116.927" cy="379.242" rx="1.349" ry="1.332" fill="#fff"/><ellipse cx="132.887" cy="383.905" rx="1.798" ry="1.776" fill="#fff"/><ellipse cx="155.141" cy="370.805" rx="1.798" ry="1.776" fill="#fff"/><ellipse cx="160.759" cy="386.125" rx="1.798" ry="1.776" fill="#fff"/><ellipse cx="296.539" cy="361.035" rx="1.349" ry="1.332" fill="#fff"/><ellipse cx="186.387" cy="225.15" rx="1.349" ry="1.332" fill="#fff"/><ellipse cx="182.905" cy="144.218" rx="1.686" ry="1.665" fill="#fff"/><ellipse cx="163.124" cy="133.117" rx="2.136" ry="2.109" fill="#fff"/><ellipse cx="164.36" cy="111.912" rx="1.349" ry="1.332" fill="#fff"/><ellipse cx="174.024" cy="120.35" rx="1.349" ry="1.332" fill="#fff"/><ellipse cx="129.401" cy="112.023" rx="1.911" ry="1.887" fill="#fff"/><ellipse cx="103.774" cy="117.13" rx="1.236" ry="1.221" fill="#fff"/><ellipse cx="105.125" cy="122.903" rx="1.236" ry="1.221" fill="#fff"/><ellipse cx="77.249" cy="194.398" rx="1.911" ry="1.887" fill="#fff"/><ellipse cx="86.241" cy="219.932" rx="1.911" ry="1.887" fill="#fff"/><ellipse cx="105.8" cy="211.939" rx="1.911" ry="1.887" fill="#fff"/></g><defs><filter id="a" x="0" y=".748" width="599.06" height="568.494" filterUnits="userSpaceOnUse" color-interpolation-filters="sRGB"><feFlood flood-opacity="0" result="BackgroundImageFix"/><feColorMatrix in="SourceAlpha" values="0 0 0 0 0 0 0 0 0 0 0 0 0 0 0 0 0 0 127 0" result="hardAlpha"/><feOffset/><feGaussianBlur stdDeviation="3.5"/><feComposite in2="hardAlpha" operator="out"/><feColorMatrix values="0 0 0 0 1 0 0 0 0 1 0 0 0 0 1 0 0 0 0.19 0"/><feBlend in2="BackgroundImageFix" result="effect1_dropShadow_10_18715"/><feBlend in="SourceGraphic" in2="effect1_dropShadow_10_18715" result="shape"/></filter></defs></svg>