<svg width="1920" height="692" fill="none" xmlns="http://www.w3.org/2000/svg"><path fill-rule="evenodd" clip-rule="evenodd" d="m0 0 40 46.14c40 46.83 120 139.112 200 165.281 80 26.858 160-13.085 240-19.283 80-6.886 160 19.283 240-13.773S880 53.027 960 53.027s160 92.282 240 99.169c80 6.886 160-73 240-92.282 80-19.971 160 19.283 240 19.283s160-39.254 200-59.226L1920 0v317.476H0V0zM1920 691.476l-40-46.141c-40-46.83-120-139.111-200-165.28-80-26.858-160 13.084-240 19.282-80 6.887-160-19.282-240 13.774s-160 125.337-240 125.337-160-92.281-240-99.168c-80-6.887-160 72.999-240 92.282-80 19.971-160-19.283-240-19.283S80 651.533 40 671.504L0 691.476V374h1920v317.476z" fill="#F8F9FB"/><path d="M1920 243H0v182h1920V243z" fill="#F8F9FB"/></svg>