<svg width="109" height="30" fill="none" xmlns="http://www.w3.org/2000/svg"><path d="M82.492 6.61a9.792 9.792 0 0 1 3.96.736 9.892 9.892 0 0 1 3.301 2.158c.93.897 1.673 1.972 2.232 3.224a9.79 9.79 0 0 1 .874 3.933l.03 1.732-16.713.291c.2.722.508 1.388.921 1.999a7.76 7.76 0 0 0 1.518 1.584c.599.42 1.249.744 1.951.974.702.23 1.443.337 2.221.323 1.209-.02 2.291-.322 3.248-.902.984-.581 1.45-.846 2.078-1.851l3.517-.07c.393-.007.64.42.423.749-.936 1.42-2.328 3.13-4.273 4.203-1.537.848-3.16 1.344-4.931 1.375-1.397.025-2.73-.22-4.002-.736a10.842 10.842 0 0 1-3.3-2.117 10.843 10.843 0 0 1-2.231-3.225 10.078 10.078 0 0 1-.876-3.973 9.791 9.791 0 0 1 .737-3.96c.515-1.272 1.221-2.372 2.118-3.3a10.48 10.48 0 0 1 3.223-2.273 10.08 10.08 0 0 1 3.974-.875zm6.632 8.384a6.244 6.244 0 0 0-.962-1.998 6.24 6.24 0 0 0-1.477-1.545 6.115 6.115 0 0 0-1.951-1.014 6.604 6.604 0 0 0-2.181-.324 6.726 6.726 0 0 0-2.21.401 6.762 6.762 0 0 0-1.914 1.08 6.932 6.932 0 0 0-1.463 1.598 6.775 6.775 0 0 0-.85 2.029l13.008-.227z" fill="#fff"/><path fill-rule="evenodd" clip-rule="evenodd" d="M12.397.939v14.705a7.55 7.55 0 0 1-.644 3.101 7.783 7.783 0 0 1-1.692 2.538 7.852 7.852 0 0 1-2.498 1.732c-.966.403-2 .604-3.101.604H0v3.464h4.462c1.557 0 3.034-.295 4.43-.886 1.397-.618 2.606-1.437 3.626-2.457a11.547 11.547 0 0 0 2.457-3.625 10.93 10.93 0 0 0 .927-4.471V0l-3.505.939z" fill="#fff"/><path d="M26.697 6.61a9.792 9.792 0 0 1 3.96.736 9.892 9.892 0 0 1 3.301 2.158c.93.897 1.673 1.972 2.232 3.224a9.792 9.792 0 0 1 .875 3.933l.03 1.732-16.714.291c.2.722.508 1.388.921 1.999.44.61.947 1.138 1.518 1.584.599.42 1.249.744 1.951.974.703.23 1.443.337 2.222.323 1.208-.02 2.29-.322 3.247-.902.984-.581 1.451-.846 2.078-1.851l3.517-.07c.393-.007.64.42.423.749-.936 1.42-2.328 3.13-4.273 4.203-1.537.848-3.16 1.344-4.931 1.375-1.396.025-2.73-.22-4.002-.736a10.842 10.842 0 0 1-3.3-2.117 10.843 10.843 0 0 1-2.231-3.225 10.08 10.08 0 0 1-.876-3.973 9.794 9.794 0 0 1 .737-3.96c.515-1.272 1.221-2.372 2.118-3.3a10.48 10.48 0 0 1 3.224-2.273 10.08 10.08 0 0 1 3.973-.875zm6.632 8.384a6.244 6.244 0 0 0-.961-1.998 6.24 6.24 0 0 0-1.478-1.545 6.116 6.116 0 0 0-1.951-1.014 6.605 6.605 0 0 0-2.181-.324 6.726 6.726 0 0 0-2.209.401 6.762 6.762 0 0 0-1.915 1.08 6.934 6.934 0 0 0-1.463 1.598 6.772 6.772 0 0 0-.85 2.029l13.008-.227z" fill="#fff"/><path fill-rule="evenodd" clip-rule="evenodd" d="M57.45 7.679c0 1.122.357 1.977 1.07 2.563.714.562 1.6 1.02 2.657 1.378 1.084.332 2.247.638 3.49.919 1.242.28 2.392.688 3.45 1.224a7.143 7.143 0 0 1 2.696 2.181c.713.919 1.07 2.207 1.07 3.865 0 1.174-.237 2.22-.713 3.138a7 7 0 0 1-1.824 2.334c-.767.613-1.666 1.085-2.697 1.416a10.55 10.55 0 0 1-3.251.498c-1.19 0-2.34-.166-3.45-.498a9.852 9.852 0 0 1-2.974-1.53 7.85 7.85 0 0 1-2.062-2.45 7.036 7.036 0 0 1-.715-1.977l3.318-.889c.093.575.27 1.084.53 1.527.343.561.78 1.033 1.308 1.416a6.386 6.386 0 0 0 1.864.804 9.113 9.113 0 0 0 2.22.268c.608 0 1.216-.077 1.824-.23a4.91 4.91 0 0 0 1.626-.727c.476-.332.86-.74 1.15-1.225.29-.484.436-1.071.436-1.76 0-.867-.211-1.556-.634-2.066-.397-.536-.939-.97-1.626-1.302a9.998 9.998 0 0 0-2.34-.841c-.845-.23-1.731-.46-2.656-.69a45.732 45.732 0 0 1-2.657-.841 9.15 9.15 0 0 1-2.3-1.301 6.486 6.486 0 0 1-1.665-2.066C54.198 9.974 54 8.915 54 7.64c0-1.148.225-2.168.674-3.061a7.039 7.039 0 0 1 1.864-2.296A7.906 7.906 0 0 1 59.274.867 10.424 10.424 0 0 1 62.486.37c1.216 0 2.379.178 3.49.535 1.11.332 2.088.83 2.933 1.493.442.346.84.734 1.195 1.164L66.228 4.6a5.915 5.915 0 0 0-1.64-.672 8.48 8.48 0 0 0-2.142-.267 6.58 6.58 0 0 0-1.864.267 4.91 4.91 0 0 0-1.625.728c-.45.306-.82.714-1.11 1.224-.265.51-.397 1.11-.397 1.799zM40.219 6.5V3.3l3.45-.924v5.831l7.571-.132-.931 3.476-6.64.116v8.75c0 .436.08.858.24 1.266a3.899 3.899 0 0 0 1.725 1.755c.401.163.816.245 1.243.245.776 0 1.444-.245 2.006-.735.205-.148.593-.653.5-1.488l3.346-.692c.554 2.301-.978 4.54-1.64 4.915-1.23 1.007-2.634 1.51-4.212 1.51a6.39 6.39 0 0 1-2.607-.53 7.167 7.167 0 0 1-2.126-1.429 7.311 7.311 0 0 1-1.404-2.163 6.7 6.7 0 0 1-.521-2.653v-8.69l-2.632.045.932-3.476 1.7-.03V6.5zM95.974 6.503V3.304l3.45-.924V8.209l7.637-.133-.931 3.476-6.707.117v8.753c0 .435.08.857.24 1.265.188.38.429.72.723 1.02.294.3.628.544 1.003.735.401.163.815.245 1.243.245.776 0 1.444-.245 2.006-.735.205-.148.592-.654.5-1.488l3.346-.692c.554 2.301-.978 4.54-1.64 4.915-1.23 1.007-2.634 1.51-4.212 1.51a6.386 6.386 0 0 1-2.607-.53 7.166 7.166 0 0 1-2.126-1.429 7.312 7.312 0 0 1-1.404-2.163 6.701 6.701 0 0 1-.521-2.653V11.73l-2.566.044.931-3.476 1.635-.029V6.503z" fill="#fff"/></svg>