<svg width="446" height="467" fill="none" xmlns="http://www.w3.org/2000/svg"><path d="m239.5 84.251 22.675-22.862V36.666c2.941-.528 5.188-3.203 5.188-6.428 0-3.6-2.794-6.539-6.238-6.539-3.435 0-6.239 2.928-6.239 6.539 0 3.225 2.248 5.91 5.188 6.428v23.798l-22.675 22.852v52.043h-1.858v29.93h5.818v-29.93H239.5V84.251zm17.497-54.025c0-2.388 1.859-4.336 4.138-4.336s4.138 1.948 4.138 4.337c0 2.388-1.859 4.336-4.138 4.336-2.289 0-4.138-1.948-4.138-4.337zM208.485 83.316 185.81 60.453V36.666c2.941-.528 5.188-3.203 5.188-6.428 0-3.6-2.793-6.539-6.238-6.539-3.434 0-6.239 2.928-6.239 6.539 0 3.225 2.248 5.91 5.189 6.428V61.4l22.675 22.862v51.108h-1.859v29.93h5.818v-29.93h-1.859V83.316zm-27.863-53.09c0-2.388 1.859-4.336 4.138-4.336s4.138 1.948 4.138 4.337c0 2.388-1.859 4.336-4.138 4.336-2.29 0-4.138-1.948-4.138-4.337zM222.937 0c-3.434 0-6.238 2.928-6.238 6.538 0 3.226 2.247 5.912 5.188 6.44V135.37h-1.859v29.93h5.818v-29.93h-1.859V12.967c2.941-.529 5.188-3.203 5.188-6.44 0-3.599-2.793-6.527-6.238-6.527zm0 10.864c-2.279 0-4.138-1.948-4.138-4.337 0-2.388 1.859-4.337 4.138-4.337s4.138 1.949 4.138 4.337c0 2.39-1.859 4.337-4.138 4.337zM282.759 76.128c-3.435 0-6.239 2.928-6.239 6.539 0 1.42.441 2.73 1.177 3.808l-24.702 25.329v23.556h-1.954v29.929h5.819V135.36h-1.765v-22.632l24.093-24.712a6.014 6.014 0 0 0 3.56 1.178c3.435 0 6.239-2.928 6.239-6.538.01-3.589-2.794-6.528-6.228-6.528zm0 10.865c-2.279 0-4.138-1.949-4.138-4.337 0-2.389 1.859-4.337 4.138-4.337s4.138 1.948 4.138 4.337c0 2.388-1.859 4.337-4.138 4.337zM192.984 111.804l-24.702-25.329a6.744 6.744 0 0 0 1.176-3.808c0-3.6-2.794-6.539-6.238-6.539-3.435 0-6.239 2.928-6.239 6.539 0 3.6 2.794 6.538 6.239 6.538 1.323 0 2.552-.44 3.56-1.178l24.093 24.712v22.632h-1.859V165.3h5.818v-29.929h-1.859v-23.567h.011zM163.22 86.993c-2.279 0-4.138-1.949-4.138-4.337 0-2.389 1.859-4.337 4.138-4.337s4.138 1.948 4.138 4.337c0 2.388-1.859 4.337-4.138 4.337zM129.149 203.518h28.557v-6.098h-28.557v1.948h-21.593l-23.578-25.251a6.723 6.723 0 0 0 1.124-3.731c0-3.6-2.794-6.539-6.239-6.539-3.434 0-6.238 2.928-6.238 6.539 0 3.599 2.794 6.538 6.239 6.538 1.354 0 2.604-.462 3.633-1.233l24.167 25.89h22.475v1.937h.01zm-46.148-33.143c0 2.388-1.859 4.337-4.138 4.337s-4.138-1.949-4.138-4.337c0-2.389 1.86-4.337 4.139-4.337 2.289 0 4.137 1.948 4.137 4.337zM129.149 219.765h28.557v-6.098h-28.557v1.948H80.386L58.573 191.85h-23.59c-.503-3.082-3.055-5.438-6.143-5.438-3.434 0-6.239 2.928-6.239 6.539 0 3.599 2.794 6.538 6.239 6.538 3.077 0 5.64-2.355 6.144-5.437H57.69l21.814 23.765h49.656v1.948h-.011zm-96.171-26.814c0 2.389-1.86 4.337-4.138 4.337-2.28 0-4.138-1.948-4.138-4.337s1.859-4.337 4.138-4.337 4.138 1.948 4.138 4.337zM22.601 272.987c0 3.599 2.794 6.538 6.239 6.538 3.077 0 5.64-2.355 6.144-5.438h23.599l21.814-23.765h48.763v1.949h28.556v-6.099H129.16v1.949H79.504L57.69 271.886H34.984c-.504-3.082-3.056-5.438-6.144-5.438-3.434.011-6.239 2.939-6.239 6.539zm2.1 0c0-2.389 1.86-4.337 4.139-4.337s4.138 1.948 4.138 4.337c0 2.388-1.86 4.337-4.138 4.337-2.28 0-4.138-1.949-4.138-4.337zM0 232.963c0 3.6 2.794 6.539 6.238 6.539 3.078 0 5.64-2.356 6.134-5.438h116.777v1.948h28.557v-6.098h-28.557v1.948H12.372c-.504-3.082-3.056-5.437-6.134-5.437-3.444.011-6.238 2.939-6.238 6.538zm2.1 0c0-2.388 1.86-4.337 4.138-4.337 2.28 0 4.138 1.949 4.138 4.337 0 2.389-1.858 4.337-4.138 4.337-2.29 0-4.138-1.948-4.138-4.337zM72.636 295.663c0 3.599 2.793 6.538 6.238 6.538 3.434 0 6.239-2.928 6.239-6.538 0-1.387-.42-2.675-1.124-3.732l23.578-25.251h21.593v1.849h28.556v-6.098H129.16v2.048h-22.475l-24.166 25.889c-1.03-.77-2.28-1.233-3.634-1.233-3.456-.011-6.25 2.928-6.25 6.528zm2.1 0c0-2.389 1.86-4.337 4.138-4.337 2.28 0 4.138 1.948 4.138 4.337S81.153 300 78.874 300s-4.138-1.948-4.138-4.337zM315.904 201.569h22.475l24.167-25.889c1.029.77 2.279 1.233 3.634 1.233 3.434 0 6.238-2.928 6.238-6.539 0-3.599-2.794-6.538-6.238-6.538-3.435 0-6.239 2.928-6.239 6.538 0 1.387.42 2.675 1.124 3.732l-23.578 25.251h-21.593v-1.948h-28.557v6.098h28.557v-1.938h.01zm50.276-35.532c2.279 0 4.138 1.948 4.138 4.337s-1.859 4.337-4.138 4.337-4.138-1.948-4.138-4.337 1.859-4.337 4.138-4.337zM315.904 217.816h49.656l21.813-23.765h22.707c.504 3.082 3.056 5.438 6.144 5.438 3.434 0 6.238-2.928 6.238-6.539 0-3.599-2.793-6.538-6.238-6.538-3.077 0-5.64 2.355-6.144 5.437h-23.599l-21.814 23.766h-48.753v-1.949h-28.556v6.099h28.556v-1.949h-.01zm100.309-29.203c2.279 0 4.138 1.949 4.138 4.337 0 2.389-1.859 4.337-4.138 4.337s-4.138-1.948-4.138-4.337c0-2.388 1.859-4.337 4.138-4.337zM416.214 266.458c-3.078 0-5.64 2.356-6.144 5.438h-22.707l-21.813-23.765h-49.656v-1.948h-28.557v6.098h28.557v-1.949h48.752l21.814 23.766h23.599c.504 3.082 3.056 5.437 6.144 5.437 3.434 0 6.239-2.928 6.239-6.538.01-3.611-2.794-6.539-6.228-6.539zm0 10.865c-2.279 0-4.138-1.948-4.138-4.337s1.859-4.337 4.138-4.337 4.138 1.948 4.138 4.337-1.859 4.337-4.138 4.337zM438.826 226.435c-3.078 0-5.64 2.356-6.134 5.438H315.904v-1.948h-28.556v6.098h28.556v-1.948h116.778c.504 3.082 3.056 5.437 6.133 5.437 3.434 0 6.239-2.928 6.239-6.538 0-3.611-2.794-6.539-6.228-6.539zm0 10.865c-2.279 0-4.138-1.948-4.138-4.337s1.859-4.337 4.138-4.337 4.138 1.948 4.138 4.337c-.011 2.389-1.859 4.337-4.138 4.337zM366.18 289.123c-1.355 0-2.605.463-3.634 1.233l-24.166-25.89h-22.476v-2.047h-28.556v6.098h28.556v-1.849h21.593l23.579 25.251a6.724 6.724 0 0 0-1.124 3.732c0 3.599 2.793 6.538 6.238 6.538 3.435 0 6.239-2.928 6.239-6.538-.011-3.589-2.804-6.528-6.249-6.528zm0 10.876c-2.279 0-4.138-1.949-4.138-4.337 0-2.389 1.859-4.337 4.138-4.337s4.138 1.948 4.138 4.337c0 2.388-1.859 4.337-4.138 4.337zM239.499 330.677h1.859v-29.93h-5.819v29.93h1.859v52.043l22.675 22.863v23.798c-2.941.529-5.188 3.204-5.188 6.44 0 3.599 2.793 6.538 6.238 6.538 3.435 0 6.239-2.928 6.239-6.538 0-3.225-2.248-5.911-5.188-6.44v-24.734l-22.675-22.862v-51.108zm21.624 100.796c2.279 0 4.138 1.948 4.138 4.337 0 2.388-1.859 4.337-4.138 4.337s-4.138-1.949-4.138-4.337c0-2.389 1.859-4.337 4.138-4.337zM208.484 330.677h1.859v-29.93h-5.819v29.93h1.859v51.108l-22.675 22.862v24.734c-2.94.529-5.188 3.204-5.188 6.44 0 3.599 2.794 6.538 6.239 6.538 3.434 0 6.238-2.928 6.238-6.538 0-3.225-2.248-5.911-5.188-6.44v-23.798l22.675-22.863v-52.043zm-23.725 100.796c2.279 0 4.138 1.948 4.138 4.337 0 2.388-1.859 4.337-4.138 4.337-2.28 0-4.138-1.949-4.138-4.337 0-2.389 1.848-4.337 4.138-4.337zM229.174 459.509c0-3.225-2.247-5.911-5.188-6.439V330.677h1.859v-29.93h-5.819v29.93h1.859V453.07c-2.94.528-5.188 3.203-5.188 6.439 0 3.599 2.794 6.538 6.239 6.538 3.444-.011 6.238-2.939 6.238-6.538zm-2.1 0c0 2.389-1.859 4.337-4.138 4.337s-4.138-1.948-4.138-4.337 1.859-4.337 4.138-4.337 4.138 1.948 4.138 4.337zM288.997 383.37c0-3.599-2.794-6.538-6.239-6.538-1.323 0-2.552.44-3.56 1.177l-24.093-24.711v-22.632h1.765v-29.929h-5.819v29.929h1.954v23.556l24.702 25.329a6.74 6.74 0 0 0-1.177 3.808c0 3.6 2.794 6.539 6.239 6.539 3.424.011 6.228-2.928 6.228-6.528zm-2.101 0c0 2.389-1.859 4.337-4.138 4.337s-4.138-1.948-4.138-4.337 1.859-4.337 4.138-4.337c2.279.011 4.138 1.948 4.138 4.337zM192.983 330.677h1.859v-29.929h-5.819v29.929h1.859v22.631l-24.093 24.712a6.017 6.017 0 0 0-3.56-1.177c-3.434 0-6.238 2.928-6.238 6.538 0 3.599 2.793 6.539 6.238 6.539 3.434 0 6.239-2.928 6.239-6.539 0-1.42-.441-2.73-1.177-3.809l24.702-25.328v-23.567h-.01zm-25.626 52.693c0 2.389-1.859 4.337-4.138 4.337s-4.138-1.948-4.138-4.337 1.859-4.337 4.138-4.337c2.279.011 4.138 1.948 4.138 4.337z" fill="#172157"/><path d="M189.164 135.462v29.93h5.819v-29.93h-5.819zM204.669 135.455v29.929h5.819v-29.929h-5.819zM220.174 135.459v29.929h5.819v-29.929h-5.819zM235.681 135.463v29.929h5.818v-29.929h-5.818zM251.186 135.455v29.93h5.818v-29.93h-5.818zM157.769 197.53h-28.557v6.098h28.557v-6.098zM157.769 213.777h-28.557v6.098h28.557v-6.098zM157.769 230.024h-28.557v6.098h28.557v-6.098zM157.769 246.282h-28.557v6.099h28.557v-6.099zM157.769 262.529h-28.557v6.099h28.557v-6.099zM316.05 197.528h-28.556v6.099h28.556v-6.099zM316.05 213.776h-28.556v6.098h28.556v-6.098zM316.05 230.023h-28.556v6.098h28.556v-6.098zM316.05 246.281h-28.556v6.098h28.556v-6.098zM316.05 262.528h-28.556v6.098h28.556v-6.098zM189.17 300.865v29.929h5.819v-29.929h-5.819zM204.676 300.857v29.93h5.818v-29.93h-5.818zM220.181 300.861v29.929H226v-29.929h-5.819zM235.687 300.865v29.929h5.818v-29.929h-5.818zM251.192 300.858v29.929h5.818v-29.929h-5.818z" fill="#1C2666"/><path opacity=".15" d="m323.096 107.334 20.112 21.079v33.716l-20.112 21.08h-32.169l-20.113-21.08v-33.716l20.113-21.079h32.169zm1.743-4.403h-35.656l-1.229 1.288-20.112 21.079-1.229 1.288v37.371l1.229 1.287 20.112 21.08 1.229 1.288h35.656l1.229-1.288 20.112-21.08 1.229-1.287v-37.371l-1.229-1.288-20.112-21.079-1.229-1.288z" fill="#172157"/><path d="M323.096 107.334h-32.169l-20.123 21.09v33.716l20.123 21.079h32.169l20.112-21.079v-33.716l-20.112-21.09z" stroke="#1C2666" stroke-width="2" stroke-miterlimit="10"/><path d="M320.671 113.069h-27.317l-17.077 17.898v28.63l17.077 17.899h27.317l17.077-17.899v-28.63l-17.077-17.898z" stroke="#1C2666" stroke-miterlimit="10"/><path d="m322.373 138.547-.862 2.26h-.839l-.577-2.658 2.278.398zm-17.487 1.639.181-.038.603.422a7.054 7.054 0 0 1-4.152.763 7.184 7.184 0 0 1-3.868-1.756l1.183.355c1.97.586 4.044.673 6.053.254zm-9.221 2.377 5.336 2.593c.715.344 1.29.943 1.624 1.691.333.747.403 1.594.197 2.39h-3.016a6.488 6.488 0 0 0-1.394-3.38 6.031 6.031 0 0 0-2.952-1.995l.205-1.299zm1.432 6.674c-.233-1.172-1.018-2.139-2.084-2.567l.225-1.414a4.684 4.684 0 0 1 2.15 1.508 5.048 5.048 0 0 1 1.063 2.473h-1.354zm-1.396 1.405a2.082 2.082 0 0 1-.876 1.112 1.922 1.922 0 0 1-1.354.26 1.98 1.98 0 0 1-1.194-.715 2.158 2.158 0 0 1-.475-1.353 2.165 2.165 0 0 1 .469-1.356c.304-.38.726-.635 1.192-.721l-.442 2.773h2.68zm-1.096-1.405.179-1.131c.426.248.752.65.916 1.131h-1.095zm-.792 5.62c-1.677 0-3.226-.937-4.064-2.459a5.123 5.123 0 0 1 0-4.917c.838-1.521 2.387-2.459 4.064-2.459.034 0 .067.005.101.006l-.225 1.413a3.27 3.27 0 0 0-2.234 1.021 3.58 3.58 0 0 0-.98 2.339 3.61 3.61 0 0 0 .793 2.415 3.305 3.305 0 0 0 2.147 1.21 3.23 3.23 0 0 0 2.36-.637 3.529 3.529 0 0 0 1.322-2.147h1.354a4.996 4.996 0 0 1-1.571 3.012 4.57 4.57 0 0 1-3.068 1.203h.001zm21.499-10.808-2.665 6.7a2.082 2.082 0 0 1-.739.944 1.948 1.948 0 0 1-1.116.354h-7.797l.696-1.315a5.13 5.13 0 0 0 .36-3.911c-.403-1.299-1.305-2.364-2.488-2.939l-6.225-3.02-4.558-1.931 1.048-.219 3.544.464-.022.024.872.913a8.533 8.533 0 0 0 5.145 2.618 8.361 8.361 0 0 0 5.583-1.303l.91-.587a3.598 3.598 0 0 1 2.014-.575c.71.014 1.402.239 1.993.651a15.484 15.484 0 0 0 3.761 1.927l.805.281-.872.609a.694.694 0 0 0-.249.315zm2.531-1.907-1.791-.626a14.187 14.187 0 0 1-3.444-1.766 4.914 4.914 0 0 0-2.712-.886 4.9 4.9 0 0 0-2.741.783l-.201.132-.947-.662.268-.843h.001a.688.688 0 0 1 .489-.464l4.567-1.063a1.92 1.92 0 0 1 1.072.058l1.261.44 3.116 1.633a1.93 1.93 0 0 0 2.062-.168l.515 2.375-1.515 1.057zm4.121 12.715c-1.47-.004-2.853-.73-3.736-1.961a5.105 5.105 0 0 1-.762-4.306c.403-1.481 1.446-2.679 2.816-3.235l.302 1.393v-.001c-1.006.486-1.716 1.463-1.896 2.608a3.598 3.598 0 0 0 .998 3.107 3.23 3.23 0 0 0 3.015.875c1.081-.251 1.973-1.048 2.38-2.127a3.64 3.64 0 0 0-.347-3.259c-.625-.958-1.663-1.529-2.77-1.524-.025 0-.048.007-.073.008l-.302-1.393c.124-.01.248-.02.375-.02 1.676 0 3.225.938 4.063 2.459a5.123 5.123 0 0 1 0 4.917c-.838 1.522-2.387 2.459-4.063 2.459zm-.654-4.761 1.307-.312-.418-1.927v.001a2 2 0 0 1 1.501 1.048c.314.579.347 1.28.089 1.888a2.027 2.027 0 0 1-1.395 1.199 1.94 1.94 0 0 1-1.749-.462 2.151 2.151 0 0 1-.686-1.749 2.116 2.116 0 0 1 .932-1.618l.419 1.932z" fill="#1C2666"/><path d="M321.964 147.833c.079.003.158.012.236.025l-.309-1.422a3.184 3.184 0 0 0-1.307.312l.307 1.416c.32-.215.693-.33 1.073-.331zM321.29 143.66l-.315-1.447-.304-1.405h-.718a.65.65 0 0 0-.372.118l-.225.157.318 1.467.309 1.425.299 1.38c.419-.17.859-.275 1.307-.313l-.299-1.382zM319.774 136.669l-.507-2.339a.679.679 0 0 0-.654-.547h-2.681v1.405h2.145l.42 1.937.343 1.583c.093-.068.179-.144.259-.227l.413-.433.582.102-.32-1.481z" fill="#1C2666"/><path opacity=".15" d="m157.041 107.334 20.112 21.079v33.716l-20.112 21.08h-32.169l-20.112-21.08v-33.716l20.112-21.079h32.169zm1.733-4.403H123.118l-1.229 1.288-20.112 21.079-1.229 1.288v37.371l1.229 1.287 20.112 21.08 1.229 1.288H158.774l1.229-1.288 20.112-21.08 1.229-1.287v-37.371l-1.229-1.288-20.112-21.079-1.229-1.288z" fill="#172157"/><path d="M157.041 107.333h-32.179l-20.113 21.091v33.716l20.113 21.079h32.179l20.113-21.079v-33.716l-20.113-21.091z" stroke="#1C2666" stroke-width="2" stroke-miterlimit="10"/><path d="M154.605 113.068h-27.307l-17.077 17.899v28.63l17.077 17.898h27.307l17.087-17.898v-28.63l-17.087-17.899z" stroke="#1C2666" stroke-miterlimit="10"/><path d="M130.826 134.479c0 .345-.13.675-.363.919a1.212 1.212 0 0 1-.877.381h-2.301a1.21 1.21 0 0 1-.876-.381 1.33 1.33 0 0 1-.363-.919c0-.344.13-.675.363-.919.232-.243.548-.38.876-.38h2.301c.329 0 .644.137.877.38.233.244.363.575.363.919zM139.435 138.385a.889.889 0 0 0 .413-.102.932.932 0 0 0 .326-.286 1.003 1.003 0 0 0 .143-.853.965.965 0 0 0-.332-.497.894.894 0 0 0-.55-.191h-6.368a1.38 1.38 0 0 0-.999.435 1.421 1.421 0 0 1-.459.321 1.362 1.362 0 0 1-.541.112h-4.34a.906.906 0 0 0-.552.193.978.978 0 0 0-.335.5 1.013 1.013 0 0 0 .143.854c.085.121.195.22.323.289a.887.887 0 0 0 .411.108l6.304.074c.207.002.413-.039.605-.121.193-.082.367-.203.514-.357a1.52 1.52 0 0 1 1.102-.479h4.192zM152.08 142.954a.666.666 0 0 0-.401-.135h-10.644a.847.847 0 0 1-.487-.153.915.915 0 0 1-.323-.412.958.958 0 0 1-.05-.53.93.93 0 0 1 .24-.469.86.86 0 0 1 .62-.269h6.456a.54.54 0 0 0 .327-.111.582.582 0 0 0 .2-.292.606.606 0 0 0-.003-.36.576.576 0 0 0-.205-.288.534.534 0 0 0-.319-.106h-11.693c-.414 0-.811.172-1.104.479a1.508 1.508 0 0 1-1.119.479l-8.908-.087a.8.8 0 0 0-.625.291.903.903 0 0 0-.136.932.85.85 0 0 0 .305.372.795.795 0 0 0 .45.138h9.947c.232 0 .455.097.62.268a.958.958 0 0 1 .189 1 .9.9 0 0 1-.323.411.845.845 0 0 1-.486.155h-11.469a.925.925 0 0 0-.684.296 1.032 1.032 0 0 0-.283.716c0 .268.102.526.283.716.182.19.427.296.684.296h17.01c.584 0 1.158-.155 1.669-.451l2.096-1.219a2.666 2.666 0 0 1 1.331-.359h6.432a.666.666 0 0 0 .407-.139.724.724 0 0 0 .251-.363.764.764 0 0 0-.003-.449.724.724 0 0 0-.254-.361l.002.004zM154.109 152.758c.127 0 .32.111.431.044l8.416-5.092c.728-.44.43-1.607-.41-1.607h-17.335a.78.78 0 0 0-.398.107l-3.126 1.811a.787.787 0 0 1-.398.107h-20.526a.79.79 0 0 0-.38.098.841.841 0 0 0-.294.269l-1.849 2.77a.931.931 0 0 0 .201 1.235l.283.221c.031.025.059.051.089.081a.664.664 0 0 0 .54.248.654.654 0 0 0 .292-.082.687.687 0 0 0 .229-.207c1.197-.965 2.486-1.543 3.866-1.543s2.668.578 3.865 1.543c.184.193.368.289.552.289a1 1 0 0 0 .552-.289c1.196-.965 2.485-1.543 3.865-1.543 1.381 0 2.669.578 3.866 1.543.183.193.368.289.552.289a.987.987 0 0 0 .552-.289c1.197-.965 2.485-1.543 3.865-1.543 1.38 0 2.669.578 3.865 1.543.092.097.368.289.553.289.184 0 .459-.192.552-.289 1.196-.965 2.485-1.543 3.865-1.543 1.38 0 2.668.578 3.865 1.543v-.003z" fill="#1C2666"/><path opacity=".15" d="m323.003 282.991 20.112 21.08v33.716l-20.112 21.079h-32.169l-20.112-21.079v-33.716l20.112-21.08h32.169zm1.744-4.403h-35.656l-1.229 1.288-20.112 21.079-1.229 1.288v37.371l1.229 1.288 20.112 21.079 1.229 1.288h35.656l1.228-1.288 20.113-21.079 1.228-1.288v-37.371l-1.228-1.288-20.113-21.079-1.228-1.288z" fill="#172157"/><path d="M323.003 282.991h-32.169l-20.112 21.08v33.727l20.112 21.079h32.169l20.123-21.079v-33.727l-20.123-21.08z" stroke="#1C2666" stroke-width="2" stroke-miterlimit="10"/><path d="M320.577 288.716H293.26l-17.077 17.909v28.619l17.077 17.899h27.317l17.077-17.899v-28.619l-17.077-17.909z" stroke="#1C2666" stroke-miterlimit="10"/><path fill-rule="evenodd" clip-rule="evenodd" d="M327.205 307.386c-.158.196-9.469 8.617-9.732 8.867-.263.251-.055.223-.003.474s-.477.754-.583.918a.266.266 0 0 0-.028.13c.405.605 1.693 2.734 1.372 4.836.876-1.103 1.471-2.936 1.521-5.033.006.142.011.284.011.429 0 3.798-1.592 6.877-3.557 6.877-1.116 0-2.112-.996-2.764-2.554l-2.677 2.249c.298.619.345 1.214.091 1.363-.27.16-.775-.248-1.13-.911-.233-.437-.339-.871-.309-1.164l-.117-.305c-5.371 2.863-18.759 10.603-19.436 10.903-.821.361-3.283 1.03-3.786 1.03-.503 0 16.196-10.473 16.593-10.807.166-.139.052-.184-.19-.184-.34 0-.935.088-1.367.126-.288.024-1.065.086-2.309.252-.452.048-.906.069-1.361.062-.45 0-.941-.012-1.41-.029.04.06.075.123.106.19.182.39.177.784-.008.879-.186.095-.484-.145-.665-.535a1.32 1.32 0 0 1-.132-.564c-.815-.04-1.468-.09-1.586-.113-.199-.038-.213-.128-.286-.128a.358.358 0 0 0-.166.072c-.265.167-2.303 1.698-2.965 1.866-.543.136-1.478.406-1.752.406-.061 0-.09-.014-.076-.044.08-.166 4.191-3.318 4.423-3.674.214-.331-1.337-6.085-1.139-6.542.116-.269 1.48-.754 1.809-.754.045 0 .071.009.071.029 0 .167 2.197 4.928 2.541 5.039a.15.15 0 0 0 .03 0c.479 0 3.844-2.205 4.18-2.398.284-.16 1.886-.758 2.198-.754.065 0 .083.04 0 .09-.697.423-2.26 1.509-1.625 1.407.013 0 .397.006.426-.005.282-.105 2.309-1.617 4.493-2.751 1.311-.681 2.762-1.219 3.034-1.268a3.67 3.67 0 0 1 .636-.058c1.16 0 2.163.53 2.567.808.044.012.089.016.134.012.116 0 .299-.01.51-.026.428-2.87 1.793-4.972 3.416-4.972.03 0 .055.007.086.008-1.55.144-2.824 2.233-3.172 4.933.609-.058 1.306-.154 1.462-.236.042-.022.269-.19.621-.456-.371-.736-.656-1.621-.563-2.534.677-1.521 1.938-1.987 2.065-1.638-.8.719-.85 2.234-.7 3.564 2.663-2.035 8.164-6.311 8.631-6.716.452-.393 1.883-.857 2.413-.857.185 0 .263.053.156.187l-.002.004zm-17.687 16.212a.265.265 0 0 1 .056-.055c.252-.148.707.201 1.055.785l.73-1.788c-.282.1-.959.439-1.907.942l.066.116zm-4.559-3.5c-.04-.094-.222-1.173-.239-1.304-.027-.215-.277-.201-.309-.198-.152.022-1.238.596-1.21.845.052.396.135.787.248 1.169a.302.302 0 0 0 .094.136.277.277 0 0 0 .149.061.145.145 0 0 0 .055-.009c.111-.042.914-.291 1.132-.366.218-.075.119-.24.08-.334zm1.908-2.263c-.27 0-1.791.277-1.705.761.055.319.262 1.412.332 1.528.009.014.046.02.106.02.426 0 1.916-.485 2.02-.641.119-.178-.62-1.587-.707-1.66a.079.079 0 0 0-.045-.008h-.001zm3.861-2.09c-.222-.061-.77-.123-1.212-.123-.233 0-.436.017-.546.058-.318.125-.51.215-.655.355-.406.389-.834.96-.845 1.326-.01.365.696 1.763.845 1.826.075.033.156.05.238.052a.342.342 0 0 0 .184-.047.361.361 0 0 0 .134-.14c.139-.251 2.7-2.568 2.909-2.63.209-.063-.714-.585-1.052-.679v.002zm2.55 6.16c-.496.2-1.002.372-1.515.517l-.798 1.676 2.386-2.004c-.024-.064-.05-.125-.073-.189zm.583-.259.007.014.044-.037-.052.023h.001zm.116.237c.595 1.125 1.423 1.822 2.348 1.822.065-.002.13-.008.195-.018.71-1.319.544-3.718.373-5.077-.003.042 0 .076-.006.121-.032.238-.324.629-.702 1.039.236.518.277 1.032.094 1.161-.152.101-.409-.093-.633-.446l-1.669 1.398z" fill="#1C2666"/><path opacity=".15" d="m157.041 282.991 20.113 21.08v33.716l-20.113 21.079h-32.169l-20.112-21.079v-33.716l20.112-21.08h32.169zm1.733-4.403h-35.656l-1.229 1.288-20.112 21.079-1.229 1.288v37.371l1.229 1.288 20.112 21.079 1.229 1.288h35.656l1.229-1.288 20.112-21.079 1.229-1.288v-37.371l-1.229-1.288-20.112-21.079-1.229-1.288z" fill="#172157"/><path d="M157.041 282.991h-32.179l-20.112 21.08v33.727l20.112 21.079h32.179l20.113-21.079v-33.727l-20.113-21.08z" stroke="#1C2666" stroke-width="2" stroke-miterlimit="10"/><path d="M154.605 288.716h-27.306l-17.078 17.909v28.619l17.078 17.899h27.306l17.088-17.899v-28.619l-17.088-17.909z" stroke="#1C2666" stroke-miterlimit="10"/><path d="M134.377 327.489s-1.259-1.1-3.986-2.089c-2.725-.881-4.931-1.1-4.407-2.639 0 0-.524.879 2.098 1.428 2.518.66 4.407.879 6.504 2.419h12.694c2.203-1.54 3.986-1.759 6.609-2.419 2.623-.55 2.099-1.428 2.099-1.428.419 1.539-1.889 1.869-4.616 2.748-2.728.88-3.779 1.98-3.779 1.98h-13.216zM141.406 320.011h-.839c-1.259 0-3.672.11-5.141.33 0 0-1.574.11-.105 2.419 0 0-.629-1.21-.21-1.759 0 0 .105-.33.839-.44 0 0 2.623-.22 4.617-.22h.733c1.994 0 4.617.22 4.617.22.839.11.839.44.839.44.419.55-.21 1.759-.21 1.759 1.469-2.309-.105-2.419-.105-2.419-1.469-.22-3.881-.33-5.036-.33h.001zM156.199 325.398l-6.19 1.428v1.869s-.105 1.21.42 1.1h5.35s.42 0 .42-.99v-3.407zM125.88 325.398l6.19 1.428v1.869s.105 1.21-.42 1.1h-5.35s-.42 0-.42-.99v-3.407z" fill="#1C2666"/><path d="M149.17 312.754c1.629.758 2.962 2.077 3.778 3.738h.626v-1.209c.944 0 2.725 0 3.147.33.42.219.315 1.099.315 1.099l-3.881.33.104.22c.889.199 1.765.456 2.623.769-.21.33-.944.77-1.049.88-.544.233-1.105.417-1.678.55-1.26.22-2.624.439-3.253 1.32 0 0 3.147 1.319 5.351 0 0 0 .419-.881.105-1.87.21-.22.42-.33.629-.55.525 1.759 0 2.749 0 2.749-.525.99-1.573.99-4.616 1.869-3.042.88-4.511 2.75-4.511 2.75h-1.259c.735-.881 2.518-3.299 2.725-5.059 0 0 .42-.879-1.783-1.099a95.538 95.538 0 0 0-11.225 0c-2.203.22-1.784 1.099-1.784 1.099.21 1.76 2.098 4.178 2.725 5.059h-1.258s-1.363-1.87-4.407-2.75c-3.147-.879-4.197-.879-4.721-1.869 0 0-.42-.99.105-2.749.105.22.315.33.525.55-.315.989.104 1.87.104 1.87 2.203 1.319 5.456 0 5.456 0-.735-.881-2.098-1.1-3.357-1.32a6.718 6.718 0 0 1-1.574-.55c-.209-.11-.944-.55-1.049-.88a23.194 23.194 0 0 1 2.518-.769l.105-.22-3.882-.33s-.105-.88.315-1.099c.42-.33 2.203-.33 3.147-.33v1.209h.734a8.192 8.192 0 0 1 3.672-3.738 46.05 46.05 0 0 1 16.472 0h.006zm-8.183 6.267.315-2.531c2.308.11 6.609.329 9.022.44-1.469 1.319-2.098 2.748-2.098 2.748.629-.989 2.518-2.089 3.567-2.639-.42-2.198-2.832-3.628-2.832-3.628-4.827-1.099-11.226-1.099-15.947 0 0 0-2.416 1.428-2.938 3.628 1.154.55 2.938 1.65 3.672 2.639 0 0-.734-1.428-2.203-2.748 2.413-.111 6.714-.33 9.022-.44l.42 2.531z" fill="#1C2666"/><path d="m278.883 169.142 3.351 1.42 1.365 3.511-13.979 14.651-3.35-1.431-1.355-3.511 13.968-14.64z" fill="#172157"/><path d="m282.233 170.562 1.366 3.511-13.979 14.651-3.35-1.431" fill="url(#a)"/><path d="m177.136 275.793 3.35 1.42 1.355 3.512-13.979 14.64-3.35-1.42-1.355-3.512 13.979-14.64z" fill="#172157"/><path d="m180.486 277.213 1.355 3.512-13.979 14.64-3.351-1.42" fill="url(#b)"/><path d="m182.261 184.948-1.355 3.511-3.35 1.42-13.969-14.64 1.355-3.511 3.35-1.42 13.969 14.64z" fill="#172157"/><path d="m180.906 188.459-3.351 1.42-13.968-14.64 1.355-3.512" fill="url(#c)"/><path d="m282.308 291.225-1.355 3.512-3.351 1.42-13.978-14.64 1.354-3.512 3.351-1.431 13.979 14.651z" fill="#172157"/><path d="m280.952 294.737-3.35 1.42-13.979-14.64 1.355-3.512" fill="url(#d)"/><path opacity=".15" d="m157.041 282.991 20.113 21.079v33.716l-20.113 21.08h-32.169l-20.112-21.08V304.07l20.112-21.079h32.169zm1.733-4.403h-35.656l-1.229 1.288-20.112 21.079-1.229 1.288v37.371l1.229 1.288 20.112 21.079 1.229 1.288h35.656l1.229-1.288 20.112-21.079 1.229-1.288v-37.371l-1.229-1.288-20.112-21.079-1.229-1.288z" fill="#172157"/><path opacity=".15" d="m157.041 282.991 20.113 21.079v33.716l-20.113 21.08h-32.169l-20.112-21.08V304.07l20.112-21.079h32.169zm1.733-4.403h-35.656l-1.229 1.288-20.112 21.079-1.229 1.288v37.371l1.229 1.288 20.112 21.079 1.229 1.288h35.656l1.229-1.288 20.112-21.079 1.229-1.288v-37.371l-1.229-1.288-20.112-21.079-1.229-1.288zM257.679 172.278l23.504 24.635v72.419l-23.504 24.634h-69.096l-23.505-24.634v-72.419l23.505-24.635h69.096zm1.312-3.302H187.291l-.924.969-23.505 24.635-.924.968V270.697l.924.968 23.505 24.635.924.969H258.991l.925-.969 23.504-24.635.924-.968V195.548l-.924-.968-23.504-24.635-.925-.969z" fill="#172157"/><path d="m255.946 176.681 21.047 22.059v68.775l-21.047 22.059h-65.62l-21.047-22.059V198.74l21.047-22.059h65.62zm1.732-4.403h-69.095l-23.505 24.635v72.418l23.505 24.635h69.095l23.505-24.635v-72.418l-23.505-24.635z" fill="#1C2666"/><path d="M185.454 190.188c-1.407 0-2.541 1.189-2.541 2.664s1.134 2.664 2.541 2.664c1.408 0 2.542-1.189 2.542-2.664 0-1.464-1.134-2.664-2.542-2.664zM260.81 190.188c-1.407 0-2.542 1.189-2.542 2.664s1.135 2.663 2.542 2.663c1.407 0 2.542-1.188 2.542-2.663 0-1.464-1.135-2.664-2.542-2.664zM185.454 270.729c-1.407 0-2.541 1.189-2.541 2.664s1.134 2.664 2.541 2.664c1.408 0 2.542-1.189 2.542-2.664 0-1.464-1.134-2.664-2.542-2.664zM260.81 270.729c-1.407 0-2.541 1.189-2.541 2.664s1.134 2.664 2.541 2.664 2.542-1.189 2.542-2.664c0-1.464-1.135-2.664-2.542-2.664z" fill="#1C2666"/><path d="m265.496 183.898 13.511-14.161 2.837 1.203 1.174 3.018-13.52 14.17-2.838-1.212-1.164-3.018z" fill="#172157" stroke="#1C2666"/><mask id="f" fill="#fff"><path d="m282.233 170.562 1.366 3.511-13.979 14.651-3.35-1.431"/></mask><path d="m282.233 170.562 1.366 3.511-13.979 14.651-3.35-1.431" fill="url(#e)"/><path d="m283.599 174.073.723.69.439-.46-.23-.592-.932.362zm-13.979 14.651-.393.92.638.272.478-.502-.723-.69zm11.681-17.8 1.366 3.511 1.864-.724-1.366-3.512-1.864.725zm1.574 2.459-13.979 14.651 1.447 1.38 13.979-14.651-1.447-1.38zm-12.862 14.421-3.351-1.431-.785 1.84 3.35 1.431.786-1.84z" fill="#1C2666" mask="url(#f)"/><path d="m163.738 290.549 13.521-14.16 2.837 1.202 1.164 3.018-13.521 14.161-2.837-1.203-1.164-3.018z" fill="#172157" stroke="#1C2666"/><mask id="h" fill="#fff"><path d="m180.486 277.213 1.355 3.512-13.979 14.64-3.351-1.42"/></mask><path d="m180.486 277.213 1.355 3.512-13.979 14.64-3.351-1.42" fill="url(#g)"/><path d="m181.841 280.725.723.69.438-.458-.229-.592-.932.36zm-13.979 14.64-.391.92.637.27.477-.5-.723-.69zm11.691-17.792 1.355 3.512 1.865-.72-1.354-3.512-1.866.72zm1.564 2.461-13.979 14.64 1.447 1.381 13.979-14.64-1.447-1.381zm-12.865 14.41-3.35-1.42-.781 1.841 3.35 1.42.781-1.841z" fill="#1C2666" mask="url(#h)"/><path d="m168.169 170.903 13.511 14.16-1.164 3.018-2.837 1.203-13.511-14.161 1.164-3.018 2.837-1.202z" fill="#172157" stroke="#1C2666"/><mask id="j" fill="#fff"><path d="m180.906 188.459-3.351 1.42-13.968-14.64 1.355-3.512"/></mask><path d="m180.906 188.459-3.351 1.42-13.968-14.64 1.355-3.512" fill="url(#i)"/><path d="m177.555 189.879-.723.69.477.5.637-.27-.391-.92zm-13.968-14.64-.933-.36-.228.591.438.459.723-.69zm16.928 12.299-3.35 1.42.781 1.841 3.35-1.42-.781-1.841zm-2.236 1.65-13.968-14.64-1.447 1.381 13.968 14.64 1.447-1.381zm-13.759-13.589 1.355-3.512-1.866-.72-1.355 3.512 1.866.72z" fill="#1C2666" mask="url(#j)"/><path d="m268.206 277.17 13.521 14.171-1.164 3.018-2.837 1.203-13.522-14.161 1.165-3.019 2.837-1.212z" fill="#172157" stroke="#1C2666"/><mask id="l" fill="#fff"><path d="m280.953 294.737-3.351 1.42-13.979-14.64 1.355-3.512"/></mask><path d="m280.953 294.737-3.351 1.42-13.979-14.64 1.355-3.512" fill="url(#k)"/><path d="m277.602 296.157-.723.69.477.5.636-.269-.39-.921zm-13.979-14.64-.933-.36-.228.592.438.458.723-.69zm16.939 12.299-3.35 1.42.78 1.842 3.351-1.42-.781-1.842zm-2.237 1.65-13.978-14.64-1.447 1.381 13.979 14.64 1.446-1.381zm-13.769-13.589 1.355-3.512-1.866-.719-1.355 3.511 1.866.72z" fill="#1C2666" mask="url(#l)"/><path d="M211.695 248.578h-6.066l-13.734-21.629v21.629h-6.066v-31.562h6.066l13.734 21.673v-21.673h6.066v31.562zM235.497 217.061v5.102h-12.608v8.083h9.662v5.012h-9.662v13.32h-6.066v-31.517h18.674zM259.513 217.061v5.102h-8.059v26.415h-6.066v-26.415h-8.059v-5.102h22.184z" fill="#1C2666"/><defs><linearGradient id="a" x1="264.544" y1="177.447" x2="283.601" y2="174.105" gradientUnits="userSpaceOnUse"><stop offset=".826" stop-color="#172157"/><stop offset=".944" stop-color="#29AFD9"/></linearGradient><linearGradient id="b" x1="162.789" y1="284.096" x2="181.846" y2="280.754" gradientUnits="userSpaceOnUse"><stop offset=".826" stop-color="#29AFD9"/><stop offset=".944" stop-color="#29AFD9"/></linearGradient><linearGradient id="c" x1="174.338" y1="169.915" x2="178.163" y2="189.766" gradientUnits="userSpaceOnUse"><stop offset=".826" stop-color="#29AFD9"/><stop offset=".944" stop-color="#29AFD9"/></linearGradient><linearGradient id="d" x1="274.38" y1="276.192" x2="278.205" y2="296.043" gradientUnits="userSpaceOnUse"><stop offset=".826" stop-color="#29AFD9"/><stop offset=".944" stop-color="#29AFD9"/></linearGradient><linearGradient id="e" x1="264.544" y1="177.447" x2="283.601" y2="174.105" gradientUnits="userSpaceOnUse"><stop offset=".826" stop-color="#172157"/></linearGradient><linearGradient id="g" x1="162.786" y1="284.095" x2="181.842" y2="280.751" gradientUnits="userSpaceOnUse"><stop offset=".844" stop-color="#172157"/></linearGradient><linearGradient id="i" x1="161.863" y1="178.609" x2="180.908" y2="175.268" gradientUnits="userSpaceOnUse"><stop offset=".826" stop-color="#172157"/></linearGradient><linearGradient id="k" x1="261.898" y1="284.887" x2="280.954" y2="281.543" gradientUnits="userSpaceOnUse"><stop offset=".826" stop-color="#172157"/></linearGradient></defs></svg>