<svg width="51" height="48" fill="none" xmlns="http://www.w3.org/2000/svg"><g filter="url(#a)" fill="#182056"><path d="M30.733 24.413v2.88c0 .586-.515 1.062-1.15 1.062h-1.966c-.635 0-1.15-.476-1.15-1.063v-2.879c0-2.177-1.91-3.942-4.267-3.942-2.356 0-4.267 1.765-4.267 3.942v2.88c0 .586-.515 1.062-1.15 1.062h-1.966c-.635 0-1.15-.476-1.15-1.063v-2.879c0-4.354 3.82-7.884 8.533-7.884 4.713 0 8.533 3.53 8.533 7.884z"/><path d="M37.133 27.107V13h-4.37l.066 14.107c0 2.177-1.91 3.942-4.267 3.942-2.356 0-4.266-1.765-4.266-3.942v-2.88c0-.587-.515-1.062-1.15-1.062H21.18c-.636 0-1.15.476-1.15 1.062v2.88c0 4.354 3.828 7.884 8.551 7.884 4.723 0 8.552-3.53 8.552-7.884zM22.276 16.728c.102-.072.052-.224-.076-.224-4.713 0-8.533 3.53-8.533 7.884v2.88c0 .587.515 1.062 1.15 1.062h1.966c.635 0 1.15-.475 1.15-1.063v-2.879c0-.916.339-1.76.907-2.429.14-.165.242-.355.287-.56.413-1.89 1.558-3.535 3.15-4.671z"/><path d="M28.955 34.992c-.13.005-.261.008-.393.008-4.712 0-8.533-3.53-8.533-7.884v-3.942h4.267v3.942c0 1.032.429 1.971 1.131 2.674.372 2.146 1.681 4.004 3.528 5.202z"/></g><defs><filter id="a" x=".667" y="0" width="49.467" height="48" filterUnits="userSpaceOnUse" color-interpolation-filters="sRGB"><feFlood flood-opacity="0" result="BackgroundImageFix"/><feColorMatrix in="SourceAlpha" values="0 0 0 0 0 0 0 0 0 0 0 0 0 0 0 0 0 0 127 0" result="hardAlpha"/><feOffset/><feGaussianBlur stdDeviation="6.5"/><feComposite in2="hardAlpha" operator="out"/><feColorMatrix values="0 0 0 0 1 0 0 0 0 1 0 0 0 0 1 0 0 0 0.25 0"/><feBlend in2="BackgroundImageFix" result="effect1_dropShadow_1_12029"/><feBlend in="SourceGraphic" in2="effect1_dropShadow_1_12029" result="shape"/></filter></defs></svg>