<svg width="35" height="32" fill="none" xmlns="http://www.w3.org/2000/svg"><path d="M28.194 14.968V2.58C28.194 1.158 26.959 0 25.44 0H3.419C1.902 0 .667 1.158.667 2.58v12.388c0 1.423 1.235 2.58 2.752 2.58h22.022c1.518 0 2.753-1.157 2.753-2.58zM27.093 6.71H1.768V4.129h25.325v2.58zM3.419 1.032h22.022c.91 0 1.652.695 1.652 1.549v.516H1.768V2.58c0-.854.74-1.549 1.651-1.549z" fill="#182056"/><path d="M22.688 9.29c-.475 0-.937.098-1.376.291a3.385 3.385 0 0 0-1.376-.29c-1.822 0-3.304 1.388-3.304 3.096 0 1.708 1.482 3.097 3.304 3.097.475 0 .937-.098 1.376-.291.44.193.9.29 1.376.29 1.822 0 3.303-1.388 3.303-3.096 0-1.708-1.481-3.097-3.303-3.097zm0 5.162c-.379 0-.75-.097-1.1-.288l-.276-.152-.277.152c-.35.19-.72.288-1.1.288-1.214 0-2.202-.926-2.202-2.065 0-1.138.988-2.064 2.203-2.064.38 0 .749.097 1.099.288l.277.15.277-.15c.35-.191.72-.288 1.1-.288 1.214 0 2.201.926 2.201 2.064 0 1.139-.987 2.065-2.202 2.065zM27.643 18.58c-2.213 0-4.195.948-5.508 2.432-1.354-1.531-3.357-2.431-5.503-2.431-3.946 0-7.157 3.01-7.157 6.71 0 3.699 3.211 6.709 7.157 6.709 2.146 0 4.15-.9 5.503-2.432C23.448 31.053 25.43 32 27.643 32c3.946 0 7.157-3.01 7.157-6.71s-3.21-6.71-7.157-6.71zm-11.01 12.388c-3.34 0-6.057-2.547-6.057-5.678 0-3.13 2.717-5.677 6.056-5.677 1.92 0 3.7.855 4.843 2.29a6.35 6.35 0 0 0-.989 3.387 6.35 6.35 0 0 0 .99 3.388c-1.143 1.435-2.924 2.29-4.844 2.29z" fill="#182056"/><path d="M26.542 22.71h2.202c.608 0 1.101.463 1.101 1.032h1.101c0-1.139-.987-2.065-2.202-2.065h-.55v-1.032h-1.101v1.032h-.551c-1.214 0-2.202.926-2.202 2.065 0 1.138.988 2.064 2.202 2.064h2.202c.608 0 1.101.463 1.101 1.033 0 .57-.493 1.032-1.1 1.032h-2.203c-.607 0-1.101-.463-1.101-1.032H24.34c0 1.138.988 2.064 2.202 2.064h.55v1.033h1.102v-1.033h.55c1.215 0 2.202-.926 2.202-2.064 0-1.139-.987-2.065-2.202-2.065h-2.202c-.607 0-1.101-.463-1.101-1.032 0-.57.494-1.032 1.101-1.032z" fill="#fff"/><path d="M29.295 11.355c0-.285.246-.516.55-.516.304 0 .55.23.55.516 0 .285-.246.516-.55.516-.304 0-.55-.231-.55-.516zM31.497 11.355c0-.285.71-.428 1.014-.428 0-.285.304 0 0 0 0 .285-.16.944-.464.944-.304 0-.55-.231-.55-.516zM31.497 13.42c0-.286.246-.517.55-.517.304 0 .55.231.55.516 0 .285-.246.516-.55.516-.304 0-.55-.23-.55-.516zM31.497 15.484c0-.285.246-.516.55-.516.304 0 .55.23.55.516 0 .285-.246.516-.55.516-.304 0-.55-.231-.55-.516zM31.497 17.548c0-.285.246-.516.55-.516.304 0 .55.231.55.516 0 .285-.246.517-.55.517-.304 0-.55-.232-.55-.517zM3.97 19.097c0-.285.246-.516.55-.516.305 0 .551.23.551.516 0 .285-.246.516-.55.516-.305 0-.551-.231-.551-.516zM3.97 21.161c0-.285.246-.516.55-.516.305 0 .551.231.551.516 0 .285-.246.516-.55.516-.305 0-.551-.23-.551-.516zM3.97 23.226c0-.285.246-.516.55-.516.305 0 .551.23.551.516 0 .285-.246.516-.55.516-.305 0-.551-.231-.551-.516zM3.97 25.29c0-.285.246-.516.55-.516.305 0 .551.231.551.516 0 .285-.246.517-.55.517-.305 0-.551-.232-.551-.517zM3.97 27.355c0-.285.246-.516.55-.516.305 0 .551.23.551.516 0 .285-.246.516-.55.516-.305 0-.551-.231-.551-.516zM4.205 29.659c0-.285.011-.756.316-.756.304 0 .55.231.55.516 0 .285-.562.24-.866.24-.304 0 0 .285 0 0zM6.172 29.42c0-.286.247-.517.55-.517.305 0 .551.231.551.516 0 .285-.246.517-.55.517-.304 0-.55-.232-.55-.517zM8.374 29.42c0-.286.247-.517.55-.517.305 0 .551.231.551.516 0 .285-.246.517-.55.517-.304 0-.55-.232-.55-.517zM19.241 23.628c-.091-.852-.86-1.141-1.829-1.227l-.008-1.181-.75-.004.008 1.15c-.197-.001-.398.002-.599.005l-.007-1.158-.75-.004.008 1.181c-.162.002-.322.004-.477.004v-.004l-1.035-.005.005.767s.554-.007.545.003c.304.001.404.17.434.317l.009 1.345c.02 0 .048.001.08.005h-.08l.013 1.884c-.013.092-.068.238-.28.237.01.008-.546-.003-.546-.003l-.143.858.976.005c.182 0 .36.005.536.007l.009 1.194.749.004-.008-1.182c.205.005.404.008.599.009l.008 1.176.75.004-.008-1.193c1.26-.063 2.14-.363 2.242-1.497.082-.913-.369-1.323-1.086-1.491.433-.21.703-.583.635-1.206zm-1.032 2.548c.007.893-1.588.783-2.097.781l-.01-1.582c.508.002 2.1-.13 2.107.801zm-.364-2.234c.006.812-1.325.71-1.748.709l-.01-1.436c.423.003 1.752-.12 1.758.727z" fill="#182056"/></svg>