<svg width="1942" height="358" fill="none" xmlns="http://www.w3.org/2000/svg"><path fill-rule="evenodd" clip-rule="evenodd" d="M1930 157.934c-68.81-20.426-148.19-34.6-235.44-34.11-302.68 1.702-394.02 199.628-733.753 180.262-339.732-19.367-518.759-127.609-812.378-142.353A3826.031 3826.031 0 0 0 10 157.295V49.791l1920 23.448v84.695z" fill="#fff" fill-opacity=".21"/><path fill-rule="evenodd" clip-rule="evenodd" d="M10 227.153c73.888 18.097 158.729 30.522 305.609 13.875 337.508-38.255 334.878-101.467 626.728-132.539C1071.41 94.747 1323.3 405.544 1809.55 224.26c38.33-14.288 78.66-24.648 120.45-31.611V98.111L10 96.033v131.12z" fill="#fff" fill-opacity=".2"/><path fill-rule="evenodd" clip-rule="evenodd" d="M1930.5 124.304c-29-7.908-61.59-5.58-97.88-5.376-266.83 1.5-336.55 170.087-636.05 150.494-299.499-19.593-457.416-127.954-716.262-142.893-178.901-10.326-338.386-3.514-470.307 9.867v-43L1930.5 99.05v25.255z" fill="#fff"/></svg>